<?xml version="1.0" encoding="utf-8" standalone="no"?>
<!DOCTYPE svg PUBLIC "-//W3C//DTD SVG 1.1//EN"
  "http://www.w3.org/Graphics/SVG/1.1/DTD/svg11.dtd">
<svg height="432pt" version="1.1" viewBox="0 0 1008 432" width="1008pt" xmlns="http://www.w3.org/2000/svg" xmlns:xlink="http://www.w3.org/1999/xlink">
 <metadata>
  <rdf:RDF xmlns:cc="http://creativecommons.org/ns#" xmlns:dc="http://purl.org/dc/elements/1.1/" xmlns:rdf="http://www.w3.org/1999/02/22-rdf-syntax-ns#">
   <cc:Work>
    <dc:type rdf:resource="http://purl.org/dc/dcmitype/StillImage"/>
    <dc:date>2021-08-06T17:09:02.371625</dc:date>
    <dc:format>image/svg+xml</dc:format>
    <dc:creator>
     <cc:Agent>
      <dc:title>Matplotlib v3.4.1, https://matplotlib.org/</dc:title>
     </cc:Agent>
    </dc:creator>
   </cc:Work>
  </rdf:RDF>
 </metadata>
 <defs>
  <style type="text/css">*{stroke-linecap:butt;stroke-linejoin:round;}</style>
 </defs>
 <g id="figure_1">
  <g id="patch_1">
   <path d="M 0 432 
L 1008 432 
L 1008 0 
L 0 0 
z
" style="fill:#ffffff;"/>
  </g>
  <g id="axes_1">
   <g id="patch_2">
    <path d="M 126 345.6 
L 907.2 345.6 
L 907.2 51.84 
L 126 51.84 
z
" style="fill:#ffffff;"/>
   </g>
   <g id="patch_3">
    <path clip-path="url(#pfa96a3a097)" d="M 153.9 345.6 
L 165.06 345.6 
L 165.06 307.79305 
L 153.9 307.79305 
z
" style="fill:#1f77b4;"/>
   </g>
   <g id="patch_4">
    <path clip-path="url(#pfa96a3a097)" d="M 265.5 345.6 
L 276.66 345.6 
L 276.66 300.23166 
L 265.5 300.23166 
z
" style="fill:#1f77b4;"/>
   </g>
   <g id="patch_5">
    <path clip-path="url(#pfa96a3a097)" d="M 377.1 345.6 
L 388.26 345.6 
L 388.26 307.79305 
L 377.1 307.79305 
z
" style="fill:#1f77b4;"/>
   </g>
   <g id="patch_6">
    <path clip-path="url(#pfa96a3a097)" d="M 488.7 345.6 
L 499.86 345.6 
L 499.86 254.86332 
L 488.7 254.86332 
z
" style="fill:#1f77b4;"/>
   </g>
   <g id="patch_7">
    <path clip-path="url(#pfa96a3a097)" d="M 600.3 345.6 
L 611.46 345.6 
L 611.46 65.828571 
L 600.3 65.828571 
z
" style="fill:#1f77b4;"/>
   </g>
   <g id="patch_8">
    <path clip-path="url(#pfa96a3a097)" d="M 711.9 345.6 
L 723.06 345.6 
L 723.06 126.319691 
L 711.9 126.319691 
z
" style="fill:#1f77b4;"/>
   </g>
   <g id="patch_9">
    <path clip-path="url(#pfa96a3a097)" d="M 823.5 345.6 
L 834.66 345.6 
L 834.66 300.23166 
L 823.5 300.23166 
z
" style="fill:#1f77b4;"/>
   </g>
   <g id="patch_10">
    <path clip-path="url(#pfa96a3a097)" d="M 165.06 345.6 
L 176.22 345.6 
L 176.22 322.91583 
L 165.06 322.91583 
z
" style="fill:#ff7f0e;"/>
   </g>
   <g id="patch_11">
    <path clip-path="url(#pfa96a3a097)" d="M 276.66 345.6 
L 287.82 345.6 
L 287.82 269.9861 
L 276.66 269.9861 
z
" style="fill:#ff7f0e;"/>
   </g>
   <g id="patch_12">
    <path clip-path="url(#pfa96a3a097)" d="M 388.26 345.6 
L 399.42 345.6 
L 399.42 330.47722 
L 388.26 330.47722 
z
" style="fill:#ff7f0e;"/>
   </g>
   <g id="patch_13">
    <path clip-path="url(#pfa96a3a097)" d="M 499.86 345.6 
L 511.02 345.6 
L 511.02 217.056371 
L 499.86 217.056371 
z
" style="fill:#ff7f0e;"/>
   </g>
   <g id="patch_14">
    <path clip-path="url(#pfa96a3a097)" d="M 611.46 345.6 
L 622.62 345.6 
L 622.62 171.688031 
L 611.46 171.688031 
z
" style="fill:#ff7f0e;"/>
   </g>
   <g id="patch_15">
    <path clip-path="url(#pfa96a3a097)" d="M 723.06 345.6 
L 734.22 345.6 
L 734.22 96.074131 
L 723.06 96.074131 
z
" style="fill:#ff7f0e;"/>
   </g>
   <g id="patch_16">
    <path clip-path="url(#pfa96a3a097)" d="M 834.66 345.6 
L 845.82 345.6 
L 845.82 254.86332 
L 834.66 254.86332 
z
" style="fill:#ff7f0e;"/>
   </g>
   <g id="patch_17">
    <path clip-path="url(#pfa96a3a097)" d="M 176.22 345.6 
L 187.38 345.6 
L 187.38 292.67027 
L 176.22 292.67027 
z
" style="fill:#2ca02c;"/>
   </g>
   <g id="patch_18">
    <path clip-path="url(#pfa96a3a097)" d="M 287.82 345.6 
L 298.98 345.6 
L 298.98 239.740541 
L 287.82 239.740541 
z
" style="fill:#2ca02c;"/>
   </g>
   <g id="patch_19">
    <path clip-path="url(#pfa96a3a097)" d="M 399.42 345.6 
L 410.58 345.6 
L 410.58 300.23166 
L 399.42 300.23166 
z
" style="fill:#2ca02c;"/>
   </g>
   <g id="patch_20">
    <path clip-path="url(#pfa96a3a097)" d="M 511.02 345.6 
L 522.18 345.6 
L 522.18 269.9861 
L 511.02 269.9861 
z
" style="fill:#2ca02c;"/>
   </g>
   <g id="patch_21">
    <path clip-path="url(#pfa96a3a097)" d="M 622.62 345.6 
L 633.78 345.6 
L 633.78 149.003861 
L 622.62 149.003861 
z
" style="fill:#2ca02c;"/>
   </g>
   <g id="patch_22">
    <path clip-path="url(#pfa96a3a097)" d="M 734.22 345.6 
L 745.38 345.6 
L 745.38 133.881081 
L 734.22 133.881081 
z
" style="fill:#2ca02c;"/>
   </g>
   <g id="patch_23">
    <path clip-path="url(#pfa96a3a097)" d="M 845.82 345.6 
L 856.98 345.6 
L 856.98 277.54749 
L 845.82 277.54749 
z
" style="fill:#2ca02c;"/>
   </g>
   <g id="patch_24">
    <path clip-path="url(#pfa96a3a097)" d="M 187.38 345.6 
L 198.54 345.6 
L 198.54 285.10888 
L 187.38 285.10888 
z
" style="fill:#d62728;"/>
   </g>
   <g id="patch_25">
    <path clip-path="url(#pfa96a3a097)" d="M 298.98 345.6 
L 310.14 345.6 
L 310.14 201.933591 
L 298.98 201.933591 
z
" style="fill:#d62728;"/>
   </g>
   <g id="patch_26">
    <path clip-path="url(#pfa96a3a097)" d="M 410.58 345.6 
L 421.74 345.6 
L 421.74 292.67027 
L 410.58 292.67027 
z
" style="fill:#d62728;"/>
   </g>
   <g id="patch_27">
    <path clip-path="url(#pfa96a3a097)" d="M 522.18 345.6 
L 533.34 345.6 
L 533.34 247.301931 
L 522.18 247.301931 
z
" style="fill:#d62728;"/>
   </g>
   <g id="patch_28">
    <path clip-path="url(#pfa96a3a097)" d="M 633.78 345.6 
L 644.94 345.6 
L 644.94 118.758301 
L 633.78 118.758301 
z
" style="fill:#d62728;"/>
   </g>
   <g id="patch_29">
    <path clip-path="url(#pfa96a3a097)" d="M 745.38 345.6 
L 756.54 345.6 
L 756.54 262.42471 
L 745.38 262.42471 
z
" style="fill:#d62728;"/>
   </g>
   <g id="patch_30">
    <path clip-path="url(#pfa96a3a097)" d="M 856.98 345.6 
L 868.14 345.6 
L 868.14 254.86332 
L 856.98 254.86332 
z
" style="fill:#d62728;"/>
   </g>
   <g id="patch_31">
    <path clip-path="url(#pfa96a3a097)" d="M 198.54 345.6 
L 209.7 345.6 
L 209.7 194.372201 
L 198.54 194.372201 
z
" style="fill:#9467bd;"/>
   </g>
   <g id="patch_32">
    <path clip-path="url(#pfa96a3a097)" d="M 310.14 345.6 
L 321.3 345.6 
L 321.3 194.372201 
L 310.14 194.372201 
z
" style="fill:#9467bd;"/>
   </g>
   <g id="patch_33">
    <path clip-path="url(#pfa96a3a097)" d="M 421.74 345.6 
L 432.9 345.6 
L 432.9 292.67027 
L 421.74 292.67027 
z
" style="fill:#9467bd;"/>
   </g>
   <g id="patch_34">
    <path clip-path="url(#pfa96a3a097)" d="M 533.34 345.6 
L 544.5 345.6 
L 544.5 262.42471 
L 533.34 262.42471 
z
" style="fill:#9467bd;"/>
   </g>
   <g id="patch_35">
    <path clip-path="url(#pfa96a3a097)" d="M 644.94 345.6 
L 656.1 345.6 
L 656.1 209.494981 
L 644.94 209.494981 
z
" style="fill:#9467bd;"/>
   </g>
   <g id="patch_36">
    <path clip-path="url(#pfa96a3a097)" d="M 756.54 345.6 
L 767.7 345.6 
L 767.7 247.301931 
L 756.54 247.301931 
z
" style="fill:#9467bd;"/>
   </g>
   <g id="patch_37">
    <path clip-path="url(#pfa96a3a097)" d="M 868.14 345.6 
L 879.3 345.6 
L 879.3 262.42471 
L 868.14 262.42471 
z
" style="fill:#9467bd;"/>
   </g>
   <g id="matplotlib.axis_1">
    <g id="xtick_1">
     <g id="line2d_1">
      <defs>
       <path d="M 0 0 
L 0 3.5 
" id="m1c621f9a97" style="stroke:#000000;stroke-width:0.8;"/>
      </defs>
      <g>
       <use style="stroke:#000000;stroke-width:0.8;" x="181.8" xlink:href="#m1c621f9a97" y="345.6"/>
      </g>
     </g>
     <g id="text_1">
      <!-- Every day -->
      <g transform="translate(154.198639 393.323826)rotate(-45)scale(0.1 -0.1)">
       <defs>
        <path d="M 628 4666 
L 3578 4666 
L 3578 4134 
L 1259 4134 
L 1259 2753 
L 3481 2753 
L 3481 2222 
L 1259 2222 
L 1259 531 
L 3634 531 
L 3634 0 
L 628 0 
L 628 4666 
z
" id="DejaVuSans-45" transform="scale(0.015625)"/>
        <path d="M 191 3500 
L 800 3500 
L 1894 563 
L 2988 3500 
L 3597 3500 
L 2284 0 
L 1503 0 
L 191 3500 
z
" id="DejaVuSans-76" transform="scale(0.015625)"/>
        <path d="M 3597 1894 
L 3597 1613 
L 953 1613 
Q 991 1019 1311 708 
Q 1631 397 2203 397 
Q 2534 397 2845 478 
Q 3156 559 3463 722 
L 3463 178 
Q 3153 47 2828 -22 
Q 2503 -91 2169 -91 
Q 1331 -91 842 396 
Q 353 884 353 1716 
Q 353 2575 817 3079 
Q 1281 3584 2069 3584 
Q 2775 3584 3186 3129 
Q 3597 2675 3597 1894 
z
M 3022 2063 
Q 3016 2534 2758 2815 
Q 2500 3097 2075 3097 
Q 1594 3097 1305 2825 
Q 1016 2553 972 2059 
L 3022 2063 
z
" id="DejaVuSans-65" transform="scale(0.015625)"/>
        <path d="M 2631 2963 
Q 2534 3019 2420 3045 
Q 2306 3072 2169 3072 
Q 1681 3072 1420 2755 
Q 1159 2438 1159 1844 
L 1159 0 
L 581 0 
L 581 3500 
L 1159 3500 
L 1159 2956 
Q 1341 3275 1631 3429 
Q 1922 3584 2338 3584 
Q 2397 3584 2469 3576 
Q 2541 3569 2628 3553 
L 2631 2963 
z
" id="DejaVuSans-72" transform="scale(0.015625)"/>
        <path d="M 2059 -325 
Q 1816 -950 1584 -1140 
Q 1353 -1331 966 -1331 
L 506 -1331 
L 506 -850 
L 844 -850 
Q 1081 -850 1212 -737 
Q 1344 -625 1503 -206 
L 1606 56 
L 191 3500 
L 800 3500 
L 1894 763 
L 2988 3500 
L 3597 3500 
L 2059 -325 
z
" id="DejaVuSans-79" transform="scale(0.015625)"/>
        <path id="DejaVuSans-20" transform="scale(0.015625)"/>
        <path d="M 2906 2969 
L 2906 4863 
L 3481 4863 
L 3481 0 
L 2906 0 
L 2906 525 
Q 2725 213 2448 61 
Q 2172 -91 1784 -91 
Q 1150 -91 751 415 
Q 353 922 353 1747 
Q 353 2572 751 3078 
Q 1150 3584 1784 3584 
Q 2172 3584 2448 3432 
Q 2725 3281 2906 2969 
z
M 947 1747 
Q 947 1113 1208 752 
Q 1469 391 1925 391 
Q 2381 391 2643 752 
Q 2906 1113 2906 1747 
Q 2906 2381 2643 2742 
Q 2381 3103 1925 3103 
Q 1469 3103 1208 2742 
Q 947 2381 947 1747 
z
" id="DejaVuSans-64" transform="scale(0.015625)"/>
        <path d="M 2194 1759 
Q 1497 1759 1228 1600 
Q 959 1441 959 1056 
Q 959 750 1161 570 
Q 1363 391 1709 391 
Q 2188 391 2477 730 
Q 2766 1069 2766 1631 
L 2766 1759 
L 2194 1759 
z
M 3341 1997 
L 3341 0 
L 2766 0 
L 2766 531 
Q 2569 213 2275 61 
Q 1981 -91 1556 -91 
Q 1019 -91 701 211 
Q 384 513 384 1019 
Q 384 1609 779 1909 
Q 1175 2209 1959 2209 
L 2766 2209 
L 2766 2266 
Q 2766 2663 2505 2880 
Q 2244 3097 1772 3097 
Q 1472 3097 1187 3025 
Q 903 2953 641 2809 
L 641 3341 
Q 956 3463 1253 3523 
Q 1550 3584 1831 3584 
Q 2591 3584 2966 3190 
Q 3341 2797 3341 1997 
z
" id="DejaVuSans-61" transform="scale(0.015625)"/>
       </defs>
       <use xlink:href="#DejaVuSans-45"/>
       <use x="63.183594" xlink:href="#DejaVuSans-76"/>
       <use x="122.363281" xlink:href="#DejaVuSans-65"/>
       <use x="183.886719" xlink:href="#DejaVuSans-72"/>
       <use x="225" xlink:href="#DejaVuSans-79"/>
       <use x="284.179688" xlink:href="#DejaVuSans-20"/>
       <use x="315.966797" xlink:href="#DejaVuSans-64"/>
       <use x="379.443359" xlink:href="#DejaVuSans-61"/>
       <use x="440.722656" xlink:href="#DejaVuSans-79"/>
      </g>
      <!-- or a few -->
      <g transform="translate(165.450034 397.90853)rotate(-45)scale(0.1 -0.1)">
       <defs>
        <path d="M 1959 3097 
Q 1497 3097 1228 2736 
Q 959 2375 959 1747 
Q 959 1119 1226 758 
Q 1494 397 1959 397 
Q 2419 397 2687 759 
Q 2956 1122 2956 1747 
Q 2956 2369 2687 2733 
Q 2419 3097 1959 3097 
z
M 1959 3584 
Q 2709 3584 3137 3096 
Q 3566 2609 3566 1747 
Q 3566 888 3137 398 
Q 2709 -91 1959 -91 
Q 1206 -91 779 398 
Q 353 888 353 1747 
Q 353 2609 779 3096 
Q 1206 3584 1959 3584 
z
" id="DejaVuSans-6f" transform="scale(0.015625)"/>
        <path d="M 2375 4863 
L 2375 4384 
L 1825 4384 
Q 1516 4384 1395 4259 
Q 1275 4134 1275 3809 
L 1275 3500 
L 2222 3500 
L 2222 3053 
L 1275 3053 
L 1275 0 
L 697 0 
L 697 3053 
L 147 3053 
L 147 3500 
L 697 3500 
L 697 3744 
Q 697 4328 969 4595 
Q 1241 4863 1831 4863 
L 2375 4863 
z
" id="DejaVuSans-66" transform="scale(0.015625)"/>
        <path d="M 269 3500 
L 844 3500 
L 1563 769 
L 2278 3500 
L 2956 3500 
L 3675 769 
L 4391 3500 
L 4966 3500 
L 4050 0 
L 3372 0 
L 2619 2869 
L 1863 0 
L 1184 0 
L 269 3500 
z
" id="DejaVuSans-77" transform="scale(0.015625)"/>
       </defs>
       <use xlink:href="#DejaVuSans-6f"/>
       <use x="61.181641" xlink:href="#DejaVuSans-72"/>
       <use x="102.294922" xlink:href="#DejaVuSans-20"/>
       <use x="134.082031" xlink:href="#DejaVuSans-61"/>
       <use x="195.361328" xlink:href="#DejaVuSans-20"/>
       <use x="227.148438" xlink:href="#DejaVuSans-66"/>
       <use x="262.353516" xlink:href="#DejaVuSans-65"/>
       <use x="323.876953" xlink:href="#DejaVuSans-77"/>
      </g>
      <!-- times a -->
      <g transform="translate(174.590604 404.604058)rotate(-45)scale(0.1 -0.1)">
       <defs>
        <path d="M 1172 4494 
L 1172 3500 
L 2356 3500 
L 2356 3053 
L 1172 3053 
L 1172 1153 
Q 1172 725 1289 603 
Q 1406 481 1766 481 
L 2356 481 
L 2356 0 
L 1766 0 
Q 1100 0 847 248 
Q 594 497 594 1153 
L 594 3053 
L 172 3053 
L 172 3500 
L 594 3500 
L 594 4494 
L 1172 4494 
z
" id="DejaVuSans-74" transform="scale(0.015625)"/>
        <path d="M 603 3500 
L 1178 3500 
L 1178 0 
L 603 0 
L 603 3500 
z
M 603 4863 
L 1178 4863 
L 1178 4134 
L 603 4134 
L 603 4863 
z
" id="DejaVuSans-69" transform="scale(0.015625)"/>
        <path d="M 3328 2828 
Q 3544 3216 3844 3400 
Q 4144 3584 4550 3584 
Q 5097 3584 5394 3201 
Q 5691 2819 5691 2113 
L 5691 0 
L 5113 0 
L 5113 2094 
Q 5113 2597 4934 2840 
Q 4756 3084 4391 3084 
Q 3944 3084 3684 2787 
Q 3425 2491 3425 1978 
L 3425 0 
L 2847 0 
L 2847 2094 
Q 2847 2600 2669 2842 
Q 2491 3084 2119 3084 
Q 1678 3084 1418 2786 
Q 1159 2488 1159 1978 
L 1159 0 
L 581 0 
L 581 3500 
L 1159 3500 
L 1159 2956 
Q 1356 3278 1631 3431 
Q 1906 3584 2284 3584 
Q 2666 3584 2933 3390 
Q 3200 3197 3328 2828 
z
" id="DejaVuSans-6d" transform="scale(0.015625)"/>
        <path d="M 2834 3397 
L 2834 2853 
Q 2591 2978 2328 3040 
Q 2066 3103 1784 3103 
Q 1356 3103 1142 2972 
Q 928 2841 928 2578 
Q 928 2378 1081 2264 
Q 1234 2150 1697 2047 
L 1894 2003 
Q 2506 1872 2764 1633 
Q 3022 1394 3022 966 
Q 3022 478 2636 193 
Q 2250 -91 1575 -91 
Q 1294 -91 989 -36 
Q 684 19 347 128 
L 347 722 
Q 666 556 975 473 
Q 1284 391 1588 391 
Q 1994 391 2212 530 
Q 2431 669 2431 922 
Q 2431 1156 2273 1281 
Q 2116 1406 1581 1522 
L 1381 1569 
Q 847 1681 609 1914 
Q 372 2147 372 2553 
Q 372 3047 722 3315 
Q 1072 3584 1716 3584 
Q 2034 3584 2315 3537 
Q 2597 3491 2834 3397 
z
" id="DejaVuSans-73" transform="scale(0.015625)"/>
       </defs>
       <use xlink:href="#DejaVuSans-74"/>
       <use x="39.208984" xlink:href="#DejaVuSans-69"/>
       <use x="66.992188" xlink:href="#DejaVuSans-6d"/>
       <use x="164.404297" xlink:href="#DejaVuSans-65"/>
       <use x="225.927734" xlink:href="#DejaVuSans-73"/>
       <use x="278.027344" xlink:href="#DejaVuSans-20"/>
       <use x="309.814453" xlink:href="#DejaVuSans-61"/>
      </g>
      <!-- week -->
      <g transform="translate(186.338631 408.692129)rotate(-45)scale(0.1 -0.1)">
       <defs>
        <path d="M 581 4863 
L 1159 4863 
L 1159 1991 
L 2875 3500 
L 3609 3500 
L 1753 1863 
L 3688 0 
L 2938 0 
L 1159 1709 
L 1159 0 
L 581 0 
L 581 4863 
z
" id="DejaVuSans-6b" transform="scale(0.015625)"/>
       </defs>
       <use xlink:href="#DejaVuSans-77"/>
       <use x="81.787109" xlink:href="#DejaVuSans-65"/>
       <use x="143.310547" xlink:href="#DejaVuSans-65"/>
       <use x="204.833984" xlink:href="#DejaVuSans-6b"/>
      </g>
     </g>
    </g>
    <g id="xtick_2">
     <g id="line2d_2">
      <g>
       <use style="stroke:#000000;stroke-width:0.8;" x="293.4" xlink:href="#m1c621f9a97" y="345.6"/>
      </g>
     </g>
     <g id="text_2">
      <!-- Once or -->
      <g transform="translate(273.549524 385.740106)rotate(-45)scale(0.1 -0.1)">
       <defs>
        <path d="M 2522 4238 
Q 1834 4238 1429 3725 
Q 1025 3213 1025 2328 
Q 1025 1447 1429 934 
Q 1834 422 2522 422 
Q 3209 422 3611 934 
Q 4013 1447 4013 2328 
Q 4013 3213 3611 3725 
Q 3209 4238 2522 4238 
z
M 2522 4750 
Q 3503 4750 4090 4092 
Q 4678 3434 4678 2328 
Q 4678 1225 4090 567 
Q 3503 -91 2522 -91 
Q 1538 -91 948 565 
Q 359 1222 359 2328 
Q 359 3434 948 4092 
Q 1538 4750 2522 4750 
z
" id="DejaVuSans-4f" transform="scale(0.015625)"/>
        <path d="M 3513 2113 
L 3513 0 
L 2938 0 
L 2938 2094 
Q 2938 2591 2744 2837 
Q 2550 3084 2163 3084 
Q 1697 3084 1428 2787 
Q 1159 2491 1159 1978 
L 1159 0 
L 581 0 
L 581 3500 
L 1159 3500 
L 1159 2956 
Q 1366 3272 1645 3428 
Q 1925 3584 2291 3584 
Q 2894 3584 3203 3211 
Q 3513 2838 3513 2113 
z
" id="DejaVuSans-6e" transform="scale(0.015625)"/>
        <path d="M 3122 3366 
L 3122 2828 
Q 2878 2963 2633 3030 
Q 2388 3097 2138 3097 
Q 1578 3097 1268 2742 
Q 959 2388 959 1747 
Q 959 1106 1268 751 
Q 1578 397 2138 397 
Q 2388 397 2633 464 
Q 2878 531 3122 666 
L 3122 134 
Q 2881 22 2623 -34 
Q 2366 -91 2075 -91 
Q 1284 -91 818 406 
Q 353 903 353 1747 
Q 353 2603 823 3093 
Q 1294 3584 2113 3584 
Q 2378 3584 2631 3529 
Q 2884 3475 3122 3366 
z
" id="DejaVuSans-63" transform="scale(0.015625)"/>
       </defs>
       <use xlink:href="#DejaVuSans-4f"/>
       <use x="78.710938" xlink:href="#DejaVuSans-6e"/>
       <use x="142.089844" xlink:href="#DejaVuSans-63"/>
       <use x="197.070312" xlink:href="#DejaVuSans-65"/>
       <use x="258.59375" xlink:href="#DejaVuSans-20"/>
       <use x="290.380859" xlink:href="#DejaVuSans-6f"/>
       <use x="351.5625" xlink:href="#DejaVuSans-72"/>
      </g>
      <!-- twice a -->
      <g transform="translate(282.681808 392.44392)rotate(-45)scale(0.1 -0.1)">
       <use xlink:href="#DejaVuSans-74"/>
       <use x="39.208984" xlink:href="#DejaVuSans-77"/>
       <use x="120.996094" xlink:href="#DejaVuSans-69"/>
       <use x="148.779297" xlink:href="#DejaVuSans-63"/>
       <use x="203.759766" xlink:href="#DejaVuSans-65"/>
       <use x="265.283203" xlink:href="#DejaVuSans-20"/>
       <use x="297.070312" xlink:href="#DejaVuSans-61"/>
      </g>
      <!-- week -->
      <g transform="translate(293.979607 396.98222)rotate(-45)scale(0.1 -0.1)">
       <use xlink:href="#DejaVuSans-77"/>
       <use x="81.787109" xlink:href="#DejaVuSans-65"/>
       <use x="143.310547" xlink:href="#DejaVuSans-65"/>
       <use x="204.833984" xlink:href="#DejaVuSans-6b"/>
      </g>
     </g>
    </g>
    <g id="xtick_3">
     <g id="line2d_3">
      <g>
       <use style="stroke:#000000;stroke-width:0.8;" x="405" xlink:href="#m1c621f9a97" y="345.6"/>
      </g>
     </g>
     <g id="text_3">
      <!-- Once every -->
      <g transform="translate(382.735749 398.485706)rotate(-45)scale(0.1 -0.1)">
       <use xlink:href="#DejaVuSans-4f"/>
       <use x="78.710938" xlink:href="#DejaVuSans-6e"/>
       <use x="142.089844" xlink:href="#DejaVuSans-63"/>
       <use x="197.070312" xlink:href="#DejaVuSans-65"/>
       <use x="258.59375" xlink:href="#DejaVuSans-20"/>
       <use x="290.380859" xlink:href="#DejaVuSans-65"/>
       <use x="351.904297" xlink:href="#DejaVuSans-76"/>
       <use x="411.083984" xlink:href="#DejaVuSans-65"/>
       <use x="472.607422" xlink:href="#DejaVuSans-72"/>
       <use x="513.720703" xlink:href="#DejaVuSans-79"/>
      </g>
      <!-- two weeks -->
      <g transform="translate(392.214405 404.843148)rotate(-45)scale(0.1 -0.1)">
       <use xlink:href="#DejaVuSans-74"/>
       <use x="39.208984" xlink:href="#DejaVuSans-77"/>
       <use x="120.996094" xlink:href="#DejaVuSans-6f"/>
       <use x="182.177734" xlink:href="#DejaVuSans-20"/>
       <use x="213.964844" xlink:href="#DejaVuSans-77"/>
       <use x="295.751953" xlink:href="#DejaVuSans-65"/>
       <use x="357.275391" xlink:href="#DejaVuSans-65"/>
       <use x="418.798828" xlink:href="#DejaVuSans-6b"/>
       <use x="476.708984" xlink:href="#DejaVuSans-73"/>
      </g>
     </g>
    </g>
    <g id="xtick_4">
     <g id="line2d_4">
      <g>
       <use style="stroke:#000000;stroke-width:0.8;" x="516.6" xlink:href="#m1c621f9a97" y="345.6"/>
      </g>
     </g>
     <g id="text_4">
      <!-- Once a -->
      <g transform="translate(502.15867 382.839863)rotate(-45)scale(0.1 -0.1)">
       <use xlink:href="#DejaVuSans-4f"/>
       <use x="78.710938" xlink:href="#DejaVuSans-6e"/>
       <use x="142.089844" xlink:href="#DejaVuSans-63"/>
       <use x="197.070312" xlink:href="#DejaVuSans-65"/>
       <use x="258.59375" xlink:href="#DejaVuSans-20"/>
       <use x="290.380859" xlink:href="#DejaVuSans-61"/>
      </g>
      <!-- month -->
      <g transform="translate(511.035733 389.798899)rotate(-45)scale(0.1 -0.1)">
       <defs>
        <path d="M 3513 2113 
L 3513 0 
L 2938 0 
L 2938 2094 
Q 2938 2591 2744 2837 
Q 2550 3084 2163 3084 
Q 1697 3084 1428 2787 
Q 1159 2491 1159 1978 
L 1159 0 
L 581 0 
L 581 4863 
L 1159 4863 
L 1159 2956 
Q 1366 3272 1645 3428 
Q 1925 3584 2291 3584 
Q 2894 3584 3203 3211 
Q 3513 2838 3513 2113 
z
" id="DejaVuSans-68" transform="scale(0.015625)"/>
       </defs>
       <use xlink:href="#DejaVuSans-6d"/>
       <use x="97.412109" xlink:href="#DejaVuSans-6f"/>
       <use x="158.59375" xlink:href="#DejaVuSans-6e"/>
       <use x="221.972656" xlink:href="#DejaVuSans-74"/>
       <use x="261.181641" xlink:href="#DejaVuSans-68"/>
      </g>
     </g>
    </g>
    <g id="xtick_5">
     <g id="line2d_5">
      <g>
       <use style="stroke:#000000;stroke-width:0.8;" x="628.2" xlink:href="#m1c621f9a97" y="345.6"/>
      </g>
     </g>
     <g id="text_5">
      <!-- Only a few -->
      <g transform="translate(603.409168 395.620819)rotate(-45)scale(0.1 -0.1)">
       <defs>
        <path d="M 603 4863 
L 1178 4863 
L 1178 0 
L 603 0 
L 603 4863 
z
" id="DejaVuSans-6c" transform="scale(0.015625)"/>
       </defs>
       <use xlink:href="#DejaVuSans-4f"/>
       <use x="78.710938" xlink:href="#DejaVuSans-6e"/>
       <use x="142.089844" xlink:href="#DejaVuSans-6c"/>
       <use x="169.873047" xlink:href="#DejaVuSans-79"/>
       <use x="229.052734" xlink:href="#DejaVuSans-20"/>
       <use x="260.839844" xlink:href="#DejaVuSans-61"/>
       <use x="322.119141" xlink:href="#DejaVuSans-20"/>
       <use x="353.90625" xlink:href="#DejaVuSans-66"/>
       <use x="389.111328" xlink:href="#DejaVuSans-65"/>
       <use x="450.634766" xlink:href="#DejaVuSans-77"/>
      </g>
      <!-- times a -->
      <g transform="translate(617.03158 397.834505)rotate(-45)scale(0.1 -0.1)">
       <use xlink:href="#DejaVuSans-74"/>
       <use x="39.208984" xlink:href="#DejaVuSans-69"/>
       <use x="66.992188" xlink:href="#DejaVuSans-6d"/>
       <use x="164.404297" xlink:href="#DejaVuSans-65"/>
       <use x="225.927734" xlink:href="#DejaVuSans-73"/>
       <use x="278.027344" xlink:href="#DejaVuSans-20"/>
       <use x="309.814453" xlink:href="#DejaVuSans-61"/>
      </g>
      <!-- year -->
      <g transform="translate(630.181114 400.521069)rotate(-45)scale(0.1 -0.1)">
       <use xlink:href="#DejaVuSans-79"/>
       <use x="59.179688" xlink:href="#DejaVuSans-65"/>
       <use x="120.703125" xlink:href="#DejaVuSans-61"/>
       <use x="181.982422" xlink:href="#DejaVuSans-72"/>
      </g>
     </g>
    </g>
    <g id="xtick_6">
     <g id="line2d_6">
      <g>
       <use style="stroke:#000000;stroke-width:0.8;" x="739.8" xlink:href="#m1c621f9a97" y="345.6"/>
      </g>
     </g>
     <g id="text_6">
      <!-- Less often -->
      <g transform="translate(719.753191 394.05082)rotate(-45)scale(0.1 -0.1)">
       <defs>
        <path d="M 628 4666 
L 1259 4666 
L 1259 531 
L 3531 531 
L 3531 0 
L 628 0 
L 628 4666 
z
" id="DejaVuSans-4c" transform="scale(0.015625)"/>
       </defs>
       <use xlink:href="#DejaVuSans-4c"/>
       <use x="53.962891" xlink:href="#DejaVuSans-65"/>
       <use x="115.486328" xlink:href="#DejaVuSans-73"/>
       <use x="167.585938" xlink:href="#DejaVuSans-73"/>
       <use x="219.685547" xlink:href="#DejaVuSans-20"/>
       <use x="251.472656" xlink:href="#DejaVuSans-6f"/>
       <use x="312.654297" xlink:href="#DejaVuSans-66"/>
       <use x="346.109375" xlink:href="#DejaVuSans-74"/>
       <use x="385.318359" xlink:href="#DejaVuSans-65"/>
       <use x="446.841797" xlink:href="#DejaVuSans-6e"/>
      </g>
      <!-- than this -->
      <g transform="translate(730.10192 399.53819)rotate(-45)scale(0.1 -0.1)">
       <use xlink:href="#DejaVuSans-74"/>
       <use x="39.208984" xlink:href="#DejaVuSans-68"/>
       <use x="102.587891" xlink:href="#DejaVuSans-61"/>
       <use x="163.867188" xlink:href="#DejaVuSans-6e"/>
       <use x="227.246094" xlink:href="#DejaVuSans-20"/>
       <use x="259.033203" xlink:href="#DejaVuSans-74"/>
       <use x="298.242188" xlink:href="#DejaVuSans-68"/>
       <use x="361.621094" xlink:href="#DejaVuSans-69"/>
       <use x="389.404297" xlink:href="#DejaVuSans-73"/>
      </g>
     </g>
    </g>
    <g id="xtick_7">
     <g id="line2d_7">
      <g>
       <use style="stroke:#000000;stroke-width:0.8;" x="851.4" xlink:href="#m1c621f9a97" y="345.6"/>
      </g>
     </g>
     <g id="text_7">
      <!-- It varies -->
      <g transform="translate(831.168349 388.943079)rotate(-45)scale(0.1 -0.1)">
       <defs>
        <path d="M 628 4666 
L 1259 4666 
L 1259 0 
L 628 0 
L 628 4666 
z
" id="DejaVuSans-49" transform="scale(0.015625)"/>
       </defs>
       <use xlink:href="#DejaVuSans-49"/>
       <use x="29.492188" xlink:href="#DejaVuSans-74"/>
       <use x="68.701172" xlink:href="#DejaVuSans-20"/>
       <use x="100.488281" xlink:href="#DejaVuSans-76"/>
       <use x="159.667969" xlink:href="#DejaVuSans-61"/>
       <use x="220.947266" xlink:href="#DejaVuSans-72"/>
       <use x="262.060547" xlink:href="#DejaVuSans-69"/>
       <use x="289.84375" xlink:href="#DejaVuSans-65"/>
       <use x="351.367188" xlink:href="#DejaVuSans-73"/>
      </g>
      <!-- too much -->
      <g transform="translate(836.645775 399.301751)rotate(-45)scale(0.1 -0.1)">
       <defs>
        <path d="M 544 1381 
L 544 3500 
L 1119 3500 
L 1119 1403 
Q 1119 906 1312 657 
Q 1506 409 1894 409 
Q 2359 409 2629 706 
Q 2900 1003 2900 1516 
L 2900 3500 
L 3475 3500 
L 3475 0 
L 2900 0 
L 2900 538 
Q 2691 219 2414 64 
Q 2138 -91 1772 -91 
Q 1169 -91 856 284 
Q 544 659 544 1381 
z
M 1991 3584 
L 1991 3584 
z
" id="DejaVuSans-75" transform="scale(0.015625)"/>
       </defs>
       <use xlink:href="#DejaVuSans-74"/>
       <use x="39.208984" xlink:href="#DejaVuSans-6f"/>
       <use x="100.390625" xlink:href="#DejaVuSans-6f"/>
       <use x="161.572266" xlink:href="#DejaVuSans-20"/>
       <use x="193.359375" xlink:href="#DejaVuSans-6d"/>
       <use x="290.771484" xlink:href="#DejaVuSans-75"/>
       <use x="354.150391" xlink:href="#DejaVuSans-63"/>
       <use x="409.130859" xlink:href="#DejaVuSans-68"/>
      </g>
      <!-- to say -->
      <g transform="translate(850.495235 401.28839)rotate(-45)scale(0.1 -0.1)">
       <use xlink:href="#DejaVuSans-74"/>
       <use x="39.208984" xlink:href="#DejaVuSans-6f"/>
       <use x="100.390625" xlink:href="#DejaVuSans-20"/>
       <use x="132.177734" xlink:href="#DejaVuSans-73"/>
       <use x="184.277344" xlink:href="#DejaVuSans-61"/>
       <use x="245.556641" xlink:href="#DejaVuSans-79"/>
      </g>
     </g>
    </g>
    <g id="text_8">
     <!-- Frequency -->
     <g transform="translate(487.333594 430.068847)scale(0.1 -0.1)">
      <defs>
       <path d="M 588 4666 
L 3834 4666 
L 3834 3756 
L 1791 3756 
L 1791 2888 
L 3713 2888 
L 3713 1978 
L 1791 1978 
L 1791 0 
L 588 0 
L 588 4666 
z
" id="DejaVuSans-Bold-46" transform="scale(0.015625)"/>
       <path d="M 3138 2547 
Q 2991 2616 2845 2648 
Q 2700 2681 2553 2681 
Q 2122 2681 1889 2404 
Q 1656 2128 1656 1613 
L 1656 0 
L 538 0 
L 538 3500 
L 1656 3500 
L 1656 2925 
Q 1872 3269 2151 3426 
Q 2431 3584 2822 3584 
Q 2878 3584 2943 3579 
Q 3009 3575 3134 3559 
L 3138 2547 
z
" id="DejaVuSans-Bold-72" transform="scale(0.015625)"/>
       <path d="M 4031 1759 
L 4031 1441 
L 1416 1441 
Q 1456 1047 1700 850 
Q 1944 653 2381 653 
Q 2734 653 3104 758 
Q 3475 863 3866 1075 
L 3866 213 
Q 3469 63 3072 -14 
Q 2675 -91 2278 -91 
Q 1328 -91 801 392 
Q 275 875 275 1747 
Q 275 2603 792 3093 
Q 1309 3584 2216 3584 
Q 3041 3584 3536 3087 
Q 4031 2591 4031 1759 
z
M 2881 2131 
Q 2881 2450 2695 2645 
Q 2509 2841 2209 2841 
Q 1884 2841 1681 2658 
Q 1478 2475 1428 2131 
L 2881 2131 
z
" id="DejaVuSans-Bold-65" transform="scale(0.015625)"/>
       <path d="M 2181 2772 
Q 1825 2772 1636 2509 
Q 1447 2247 1447 1747 
Q 1447 1247 1636 984 
Q 1825 722 2181 722 
Q 2541 722 2730 984 
Q 2919 1247 2919 1747 
Q 2919 2247 2730 2509 
Q 2541 2772 2181 2772 
z
M 2919 506 
Q 2688 197 2409 53 
Q 2131 -91 1766 -91 
Q 1119 -91 703 423 
Q 288 938 288 1747 
Q 288 2556 703 3067 
Q 1119 3578 1766 3578 
Q 2131 3578 2409 3434 
Q 2688 3291 2919 2981 
L 2919 3500 
L 4044 3500 
L 4044 -1331 
L 2919 -1331 
L 2919 506 
z
" id="DejaVuSans-Bold-71" transform="scale(0.015625)"/>
       <path d="M 500 1363 
L 500 3500 
L 1625 3500 
L 1625 3150 
Q 1625 2866 1622 2436 
Q 1619 2006 1619 1863 
Q 1619 1441 1641 1255 
Q 1663 1069 1716 984 
Q 1784 875 1895 815 
Q 2006 756 2150 756 
Q 2500 756 2700 1025 
Q 2900 1294 2900 1772 
L 2900 3500 
L 4019 3500 
L 4019 0 
L 2900 0 
L 2900 506 
Q 2647 200 2364 54 
Q 2081 -91 1741 -91 
Q 1134 -91 817 281 
Q 500 653 500 1363 
z
" id="DejaVuSans-Bold-75" transform="scale(0.015625)"/>
       <path d="M 4056 2131 
L 4056 0 
L 2931 0 
L 2931 347 
L 2931 1631 
Q 2931 2084 2911 2256 
Q 2891 2428 2841 2509 
Q 2775 2619 2662 2680 
Q 2550 2741 2406 2741 
Q 2056 2741 1856 2470 
Q 1656 2200 1656 1722 
L 1656 0 
L 538 0 
L 538 3500 
L 1656 3500 
L 1656 2988 
Q 1909 3294 2193 3439 
Q 2478 3584 2822 3584 
Q 3428 3584 3742 3212 
Q 4056 2841 4056 2131 
z
" id="DejaVuSans-Bold-6e" transform="scale(0.015625)"/>
       <path d="M 3366 3391 
L 3366 2478 
Q 3138 2634 2908 2709 
Q 2678 2784 2431 2784 
Q 1963 2784 1702 2511 
Q 1441 2238 1441 1747 
Q 1441 1256 1702 982 
Q 1963 709 2431 709 
Q 2694 709 2930 787 
Q 3166 866 3366 1019 
L 3366 103 
Q 3103 6 2833 -42 
Q 2563 -91 2291 -91 
Q 1344 -91 809 395 
Q 275 881 275 1747 
Q 275 2613 809 3098 
Q 1344 3584 2291 3584 
Q 2566 3584 2833 3536 
Q 3100 3488 3366 3391 
z
" id="DejaVuSans-Bold-63" transform="scale(0.015625)"/>
       <path d="M 78 3500 
L 1197 3500 
L 2138 1125 
L 2938 3500 
L 4056 3500 
L 2584 -331 
Q 2363 -916 2067 -1148 
Q 1772 -1381 1288 -1381 
L 641 -1381 
L 641 -647 
L 991 -647 
Q 1275 -647 1404 -556 
Q 1534 -466 1606 -231 
L 1638 -134 
L 78 3500 
z
" id="DejaVuSans-Bold-79" transform="scale(0.015625)"/>
      </defs>
      <use xlink:href="#DejaVuSans-Bold-46"/>
      <use x="61.935547" xlink:href="#DejaVuSans-Bold-72"/>
      <use x="111.251953" xlink:href="#DejaVuSans-Bold-65"/>
      <use x="179.074219" xlink:href="#DejaVuSans-Bold-71"/>
      <use x="250.65625" xlink:href="#DejaVuSans-Bold-75"/>
      <use x="321.847656" xlink:href="#DejaVuSans-Bold-65"/>
      <use x="389.669922" xlink:href="#DejaVuSans-Bold-6e"/>
      <use x="460.861328" xlink:href="#DejaVuSans-Bold-63"/>
      <use x="520.138672" xlink:href="#DejaVuSans-Bold-79"/>
     </g>
    </g>
   </g>
   <g id="matplotlib.axis_2">
    <g id="ytick_1">
     <g id="line2d_8">
      <defs>
       <path d="M 0 0 
L -3.5 0 
" id="m688e1f1c54" style="stroke:#000000;stroke-width:0.8;"/>
      </defs>
      <g>
       <use style="stroke:#000000;stroke-width:0.8;" x="126" xlink:href="#m688e1f1c54" y="345.6"/>
      </g>
     </g>
     <g id="text_9">
      <!-- 0 -->
      <g transform="translate(112.6375 349.399219)scale(0.1 -0.1)">
       <defs>
        <path d="M 2034 4250 
Q 1547 4250 1301 3770 
Q 1056 3291 1056 2328 
Q 1056 1369 1301 889 
Q 1547 409 2034 409 
Q 2525 409 2770 889 
Q 3016 1369 3016 2328 
Q 3016 3291 2770 3770 
Q 2525 4250 2034 4250 
z
M 2034 4750 
Q 2819 4750 3233 4129 
Q 3647 3509 3647 2328 
Q 3647 1150 3233 529 
Q 2819 -91 2034 -91 
Q 1250 -91 836 529 
Q 422 1150 422 2328 
Q 422 3509 836 4129 
Q 1250 4750 2034 4750 
z
" id="DejaVuSans-30" transform="scale(0.015625)"/>
       </defs>
       <use xlink:href="#DejaVuSans-30"/>
      </g>
     </g>
    </g>
    <g id="ytick_2">
     <g id="line2d_9">
      <g>
       <use style="stroke:#000000;stroke-width:0.8;" x="126" xlink:href="#m688e1f1c54" y="307.79305"/>
      </g>
     </g>
     <g id="text_10">
      <!-- 5 -->
      <g transform="translate(112.6375 311.592269)scale(0.1 -0.1)">
       <defs>
        <path d="M 691 4666 
L 3169 4666 
L 3169 4134 
L 1269 4134 
L 1269 2991 
Q 1406 3038 1543 3061 
Q 1681 3084 1819 3084 
Q 2600 3084 3056 2656 
Q 3513 2228 3513 1497 
Q 3513 744 3044 326 
Q 2575 -91 1722 -91 
Q 1428 -91 1123 -41 
Q 819 9 494 109 
L 494 744 
Q 775 591 1075 516 
Q 1375 441 1709 441 
Q 2250 441 2565 725 
Q 2881 1009 2881 1497 
Q 2881 1984 2565 2268 
Q 2250 2553 1709 2553 
Q 1456 2553 1204 2497 
Q 953 2441 691 2322 
L 691 4666 
z
" id="DejaVuSans-35" transform="scale(0.015625)"/>
       </defs>
       <use xlink:href="#DejaVuSans-35"/>
      </g>
     </g>
    </g>
    <g id="ytick_3">
     <g id="line2d_10">
      <g>
       <use style="stroke:#000000;stroke-width:0.8;" x="126" xlink:href="#m688e1f1c54" y="269.9861"/>
      </g>
     </g>
     <g id="text_11">
      <!-- 10 -->
      <g transform="translate(106.275 273.785319)scale(0.1 -0.1)">
       <defs>
        <path d="M 794 531 
L 1825 531 
L 1825 4091 
L 703 3866 
L 703 4441 
L 1819 4666 
L 2450 4666 
L 2450 531 
L 3481 531 
L 3481 0 
L 794 0 
L 794 531 
z
" id="DejaVuSans-31" transform="scale(0.015625)"/>
       </defs>
       <use xlink:href="#DejaVuSans-31"/>
       <use x="63.623047" xlink:href="#DejaVuSans-30"/>
      </g>
     </g>
    </g>
    <g id="ytick_4">
     <g id="line2d_11">
      <g>
       <use style="stroke:#000000;stroke-width:0.8;" x="126" xlink:href="#m688e1f1c54" y="232.179151"/>
      </g>
     </g>
     <g id="text_12">
      <!-- 15 -->
      <g transform="translate(106.275 235.978369)scale(0.1 -0.1)">
       <use xlink:href="#DejaVuSans-31"/>
       <use x="63.623047" xlink:href="#DejaVuSans-35"/>
      </g>
     </g>
    </g>
    <g id="ytick_5">
     <g id="line2d_12">
      <g>
       <use style="stroke:#000000;stroke-width:0.8;" x="126" xlink:href="#m688e1f1c54" y="194.372201"/>
      </g>
     </g>
     <g id="text_13">
      <!-- 20 -->
      <g transform="translate(106.275 198.17142)scale(0.1 -0.1)">
       <defs>
        <path d="M 1228 531 
L 3431 531 
L 3431 0 
L 469 0 
L 469 531 
Q 828 903 1448 1529 
Q 2069 2156 2228 2338 
Q 2531 2678 2651 2914 
Q 2772 3150 2772 3378 
Q 2772 3750 2511 3984 
Q 2250 4219 1831 4219 
Q 1534 4219 1204 4116 
Q 875 4013 500 3803 
L 500 4441 
Q 881 4594 1212 4672 
Q 1544 4750 1819 4750 
Q 2544 4750 2975 4387 
Q 3406 4025 3406 3419 
Q 3406 3131 3298 2873 
Q 3191 2616 2906 2266 
Q 2828 2175 2409 1742 
Q 1991 1309 1228 531 
z
" id="DejaVuSans-32" transform="scale(0.015625)"/>
       </defs>
       <use xlink:href="#DejaVuSans-32"/>
       <use x="63.623047" xlink:href="#DejaVuSans-30"/>
      </g>
     </g>
    </g>
    <g id="ytick_6">
     <g id="line2d_13">
      <g>
       <use style="stroke:#000000;stroke-width:0.8;" x="126" xlink:href="#m688e1f1c54" y="156.565251"/>
      </g>
     </g>
     <g id="text_14">
      <!-- 25 -->
      <g transform="translate(106.275 160.36447)scale(0.1 -0.1)">
       <use xlink:href="#DejaVuSans-32"/>
       <use x="63.623047" xlink:href="#DejaVuSans-35"/>
      </g>
     </g>
    </g>
    <g id="ytick_7">
     <g id="line2d_14">
      <g>
       <use style="stroke:#000000;stroke-width:0.8;" x="126" xlink:href="#m688e1f1c54" y="118.758301"/>
      </g>
     </g>
     <g id="text_15">
      <!-- 30 -->
      <g transform="translate(106.275 122.55752)scale(0.1 -0.1)">
       <defs>
        <path d="M 2597 2516 
Q 3050 2419 3304 2112 
Q 3559 1806 3559 1356 
Q 3559 666 3084 287 
Q 2609 -91 1734 -91 
Q 1441 -91 1130 -33 
Q 819 25 488 141 
L 488 750 
Q 750 597 1062 519 
Q 1375 441 1716 441 
Q 2309 441 2620 675 
Q 2931 909 2931 1356 
Q 2931 1769 2642 2001 
Q 2353 2234 1838 2234 
L 1294 2234 
L 1294 2753 
L 1863 2753 
Q 2328 2753 2575 2939 
Q 2822 3125 2822 3475 
Q 2822 3834 2567 4026 
Q 2313 4219 1838 4219 
Q 1578 4219 1281 4162 
Q 984 4106 628 3988 
L 628 4550 
Q 988 4650 1302 4700 
Q 1616 4750 1894 4750 
Q 2613 4750 3031 4423 
Q 3450 4097 3450 3541 
Q 3450 3153 3228 2886 
Q 3006 2619 2597 2516 
z
" id="DejaVuSans-33" transform="scale(0.015625)"/>
       </defs>
       <use xlink:href="#DejaVuSans-33"/>
       <use x="63.623047" xlink:href="#DejaVuSans-30"/>
      </g>
     </g>
    </g>
    <g id="ytick_8">
     <g id="line2d_15">
      <g>
       <use style="stroke:#000000;stroke-width:0.8;" x="126" xlink:href="#m688e1f1c54" y="80.951351"/>
      </g>
     </g>
     <g id="text_16">
      <!-- 35 -->
      <g transform="translate(106.275 84.75057)scale(0.1 -0.1)">
       <use xlink:href="#DejaVuSans-33"/>
       <use x="63.623047" xlink:href="#DejaVuSans-35"/>
      </g>
     </g>
    </g>
    <g id="text_17">
     <!-- Percentage -->
     <g transform="translate(100.117188 230.891094)rotate(-90)scale(0.1 -0.1)">
      <defs>
       <path d="M 588 4666 
L 2584 4666 
Q 3475 4666 3951 4270 
Q 4428 3875 4428 3144 
Q 4428 2409 3951 2014 
Q 3475 1619 2584 1619 
L 1791 1619 
L 1791 0 
L 588 0 
L 588 4666 
z
M 1791 3794 
L 1791 2491 
L 2456 2491 
Q 2806 2491 2997 2661 
Q 3188 2831 3188 3144 
Q 3188 3456 2997 3625 
Q 2806 3794 2456 3794 
L 1791 3794 
z
" id="DejaVuSans-Bold-50" transform="scale(0.015625)"/>
       <path d="M 1759 4494 
L 1759 3500 
L 2913 3500 
L 2913 2700 
L 1759 2700 
L 1759 1216 
Q 1759 972 1856 886 
Q 1953 800 2241 800 
L 2816 800 
L 2816 0 
L 1856 0 
Q 1194 0 917 276 
Q 641 553 641 1216 
L 641 2700 
L 84 2700 
L 84 3500 
L 641 3500 
L 641 4494 
L 1759 4494 
z
" id="DejaVuSans-Bold-74" transform="scale(0.015625)"/>
       <path d="M 2106 1575 
Q 1756 1575 1579 1456 
Q 1403 1338 1403 1106 
Q 1403 894 1545 773 
Q 1688 653 1941 653 
Q 2256 653 2472 879 
Q 2688 1106 2688 1447 
L 2688 1575 
L 2106 1575 
z
M 3816 1997 
L 3816 0 
L 2688 0 
L 2688 519 
Q 2463 200 2181 54 
Q 1900 -91 1497 -91 
Q 953 -91 614 226 
Q 275 544 275 1050 
Q 275 1666 698 1953 
Q 1122 2241 2028 2241 
L 2688 2241 
L 2688 2328 
Q 2688 2594 2478 2717 
Q 2269 2841 1825 2841 
Q 1466 2841 1156 2769 
Q 847 2697 581 2553 
L 581 3406 
Q 941 3494 1303 3539 
Q 1666 3584 2028 3584 
Q 2975 3584 3395 3211 
Q 3816 2838 3816 1997 
z
" id="DejaVuSans-Bold-61" transform="scale(0.015625)"/>
       <path d="M 2919 594 
Q 2688 288 2409 144 
Q 2131 0 1766 0 
Q 1125 0 706 504 
Q 288 1009 288 1791 
Q 288 2575 706 3076 
Q 1125 3578 1766 3578 
Q 2131 3578 2409 3434 
Q 2688 3291 2919 2981 
L 2919 3500 
L 4044 3500 
L 4044 353 
Q 4044 -491 3511 -936 
Q 2978 -1381 1966 -1381 
Q 1638 -1381 1331 -1331 
Q 1025 -1281 716 -1178 
L 716 -306 
Q 1009 -475 1290 -558 
Q 1572 -641 1856 -641 
Q 2406 -641 2662 -400 
Q 2919 -159 2919 353 
L 2919 594 
z
M 2181 2772 
Q 1834 2772 1640 2515 
Q 1447 2259 1447 1791 
Q 1447 1309 1634 1061 
Q 1822 813 2181 813 
Q 2531 813 2725 1069 
Q 2919 1325 2919 1791 
Q 2919 2259 2725 2515 
Q 2531 2772 2181 2772 
z
" id="DejaVuSans-Bold-67" transform="scale(0.015625)"/>
      </defs>
      <use xlink:href="#DejaVuSans-Bold-50"/>
      <use x="73.291016" xlink:href="#DejaVuSans-Bold-65"/>
      <use x="141.113281" xlink:href="#DejaVuSans-Bold-72"/>
      <use x="190.429688" xlink:href="#DejaVuSans-Bold-63"/>
      <use x="249.707031" xlink:href="#DejaVuSans-Bold-65"/>
      <use x="317.529297" xlink:href="#DejaVuSans-Bold-6e"/>
      <use x="388.720703" xlink:href="#DejaVuSans-Bold-74"/>
      <use x="436.523438" xlink:href="#DejaVuSans-Bold-61"/>
      <use x="504.003906" xlink:href="#DejaVuSans-Bold-67"/>
      <use x="575.585938" xlink:href="#DejaVuSans-Bold-65"/>
     </g>
    </g>
   </g>
   <g id="patch_38">
    <path d="M 126 345.6 
L 126 51.84 
" style="fill:none;stroke:#000000;stroke-linecap:square;stroke-linejoin:miter;stroke-width:0.8;"/>
   </g>
   <g id="patch_39">
    <path d="M 907.2 345.6 
L 907.2 51.84 
" style="fill:none;stroke:#000000;stroke-linecap:square;stroke-linejoin:miter;stroke-width:0.8;"/>
   </g>
   <g id="patch_40">
    <path d="M 126 345.6 
L 907.2 345.6 
" style="fill:none;stroke:#000000;stroke-linecap:square;stroke-linejoin:miter;stroke-width:0.8;"/>
   </g>
   <g id="patch_41">
    <path d="M 126 51.84 
L 907.2 51.84 
" style="fill:none;stroke:#000000;stroke-linecap:square;stroke-linejoin:miter;stroke-width:0.8;"/>
   </g>
   <g id="text_18">
    <!-- Online bullying behaviours in the previous 12 months, by type of behaviour, year ending March 2020, CSEW -->
    <g transform="translate(120.231016 45.84)scale(0.13 -0.13)">
     <defs>
      <path d="M 2719 3878 
Q 2169 3878 1866 3472 
Q 1563 3066 1563 2328 
Q 1563 1594 1866 1187 
Q 2169 781 2719 781 
Q 3272 781 3575 1187 
Q 3878 1594 3878 2328 
Q 3878 3066 3575 3472 
Q 3272 3878 2719 3878 
z
M 2719 4750 
Q 3844 4750 4481 4106 
Q 5119 3463 5119 2328 
Q 5119 1197 4481 553 
Q 3844 -91 2719 -91 
Q 1597 -91 958 553 
Q 319 1197 319 2328 
Q 319 3463 958 4106 
Q 1597 4750 2719 4750 
z
" id="DejaVuSans-Bold-4f" transform="scale(0.015625)"/>
      <path d="M 538 4863 
L 1656 4863 
L 1656 0 
L 538 0 
L 538 4863 
z
" id="DejaVuSans-Bold-6c" transform="scale(0.015625)"/>
      <path d="M 538 3500 
L 1656 3500 
L 1656 0 
L 538 0 
L 538 3500 
z
M 538 4863 
L 1656 4863 
L 1656 3950 
L 538 3950 
L 538 4863 
z
" id="DejaVuSans-Bold-69" transform="scale(0.015625)"/>
      <path id="DejaVuSans-Bold-20" transform="scale(0.015625)"/>
      <path d="M 2400 722 
Q 2759 722 2948 984 
Q 3138 1247 3138 1747 
Q 3138 2247 2948 2509 
Q 2759 2772 2400 2772 
Q 2041 2772 1848 2508 
Q 1656 2244 1656 1747 
Q 1656 1250 1848 986 
Q 2041 722 2400 722 
z
M 1656 2988 
Q 1888 3294 2169 3439 
Q 2450 3584 2816 3584 
Q 3463 3584 3878 3070 
Q 4294 2556 4294 1747 
Q 4294 938 3878 423 
Q 3463 -91 2816 -91 
Q 2450 -91 2169 54 
Q 1888 200 1656 506 
L 1656 0 
L 538 0 
L 538 4863 
L 1656 4863 
L 1656 2988 
z
" id="DejaVuSans-Bold-62" transform="scale(0.015625)"/>
      <path d="M 4056 2131 
L 4056 0 
L 2931 0 
L 2931 347 
L 2931 1625 
Q 2931 2084 2911 2256 
Q 2891 2428 2841 2509 
Q 2775 2619 2662 2680 
Q 2550 2741 2406 2741 
Q 2056 2741 1856 2470 
Q 1656 2200 1656 1722 
L 1656 0 
L 538 0 
L 538 4863 
L 1656 4863 
L 1656 2988 
Q 1909 3294 2193 3439 
Q 2478 3584 2822 3584 
Q 3428 3584 3742 3212 
Q 4056 2841 4056 2131 
z
" id="DejaVuSans-Bold-68" transform="scale(0.015625)"/>
      <path d="M 97 3500 
L 1216 3500 
L 2088 1081 
L 2956 3500 
L 4078 3500 
L 2700 0 
L 1472 0 
L 97 3500 
z
" id="DejaVuSans-Bold-76" transform="scale(0.015625)"/>
      <path d="M 2203 2784 
Q 1831 2784 1636 2517 
Q 1441 2250 1441 1747 
Q 1441 1244 1636 976 
Q 1831 709 2203 709 
Q 2569 709 2762 976 
Q 2956 1244 2956 1747 
Q 2956 2250 2762 2517 
Q 2569 2784 2203 2784 
z
M 2203 3584 
Q 3106 3584 3614 3096 
Q 4122 2609 4122 1747 
Q 4122 884 3614 396 
Q 3106 -91 2203 -91 
Q 1297 -91 786 396 
Q 275 884 275 1747 
Q 275 2609 786 3096 
Q 1297 3584 2203 3584 
z
" id="DejaVuSans-Bold-6f" transform="scale(0.015625)"/>
      <path d="M 3272 3391 
L 3272 2541 
Q 2913 2691 2578 2766 
Q 2244 2841 1947 2841 
Q 1628 2841 1473 2761 
Q 1319 2681 1319 2516 
Q 1319 2381 1436 2309 
Q 1553 2238 1856 2203 
L 2053 2175 
Q 2913 2066 3209 1816 
Q 3506 1566 3506 1031 
Q 3506 472 3093 190 
Q 2681 -91 1863 -91 
Q 1516 -91 1145 -36 
Q 775 19 384 128 
L 384 978 
Q 719 816 1070 734 
Q 1422 653 1784 653 
Q 2113 653 2278 743 
Q 2444 834 2444 1013 
Q 2444 1163 2330 1236 
Q 2216 1309 1875 1350 
L 1678 1375 
Q 931 1469 631 1722 
Q 331 1975 331 2491 
Q 331 3047 712 3315 
Q 1094 3584 1881 3584 
Q 2191 3584 2531 3537 
Q 2872 3491 3272 3391 
z
" id="DejaVuSans-Bold-73" transform="scale(0.015625)"/>
      <path d="M 1656 506 
L 1656 -1331 
L 538 -1331 
L 538 3500 
L 1656 3500 
L 1656 2988 
Q 1888 3294 2169 3439 
Q 2450 3584 2816 3584 
Q 3463 3584 3878 3070 
Q 4294 2556 4294 1747 
Q 4294 938 3878 423 
Q 3463 -91 2816 -91 
Q 2450 -91 2169 54 
Q 1888 200 1656 506 
z
M 2400 2772 
Q 2041 2772 1848 2508 
Q 1656 2244 1656 1747 
Q 1656 1250 1848 986 
Q 2041 722 2400 722 
Q 2759 722 2948 984 
Q 3138 1247 3138 1747 
Q 3138 2247 2948 2509 
Q 2759 2772 2400 2772 
z
" id="DejaVuSans-Bold-70" transform="scale(0.015625)"/>
      <path d="M 750 831 
L 1813 831 
L 1813 3847 
L 722 3622 
L 722 4441 
L 1806 4666 
L 2950 4666 
L 2950 831 
L 4013 831 
L 4013 0 
L 750 0 
L 750 831 
z
" id="DejaVuSans-Bold-31" transform="scale(0.015625)"/>
      <path d="M 1844 884 
L 3897 884 
L 3897 0 
L 506 0 
L 506 884 
L 2209 2388 
Q 2438 2594 2547 2791 
Q 2656 2988 2656 3200 
Q 2656 3528 2436 3728 
Q 2216 3928 1850 3928 
Q 1569 3928 1234 3808 
Q 900 3688 519 3450 
L 519 4475 
Q 925 4609 1322 4679 
Q 1719 4750 2100 4750 
Q 2938 4750 3402 4381 
Q 3866 4013 3866 3353 
Q 3866 2972 3669 2642 
Q 3472 2313 2841 1759 
L 1844 884 
z
" id="DejaVuSans-Bold-32" transform="scale(0.015625)"/>
      <path d="M 3781 2919 
Q 3994 3244 4286 3414 
Q 4578 3584 4928 3584 
Q 5531 3584 5847 3212 
Q 6163 2841 6163 2131 
L 6163 0 
L 5038 0 
L 5038 1825 
Q 5041 1866 5042 1909 
Q 5044 1953 5044 2034 
Q 5044 2406 4934 2573 
Q 4825 2741 4581 2741 
Q 4263 2741 4089 2478 
Q 3916 2216 3909 1719 
L 3909 0 
L 2784 0 
L 2784 1825 
Q 2784 2406 2684 2573 
Q 2584 2741 2328 2741 
Q 2006 2741 1831 2477 
Q 1656 2213 1656 1722 
L 1656 0 
L 531 0 
L 531 3500 
L 1656 3500 
L 1656 2988 
Q 1863 3284 2130 3434 
Q 2397 3584 2719 3584 
Q 3081 3584 3359 3409 
Q 3638 3234 3781 2919 
z
" id="DejaVuSans-Bold-6d" transform="scale(0.015625)"/>
      <path d="M 653 1209 
L 1778 1209 
L 1778 256 
L 1006 -909 
L 341 -909 
L 653 256 
L 653 1209 
z
" id="DejaVuSans-Bold-2c" transform="scale(0.015625)"/>
      <path d="M 2841 4863 
L 2841 4128 
L 2222 4128 
Q 1984 4128 1890 4042 
Q 1797 3956 1797 3744 
L 1797 3500 
L 2753 3500 
L 2753 2700 
L 1797 2700 
L 1797 0 
L 678 0 
L 678 2700 
L 122 2700 
L 122 3500 
L 678 3500 
L 678 3744 
Q 678 4316 997 4589 
Q 1316 4863 1984 4863 
L 2841 4863 
z
" id="DejaVuSans-Bold-66" transform="scale(0.015625)"/>
      <path d="M 2919 2988 
L 2919 4863 
L 4044 4863 
L 4044 0 
L 2919 0 
L 2919 506 
Q 2688 197 2409 53 
Q 2131 -91 1766 -91 
Q 1119 -91 703 423 
Q 288 938 288 1747 
Q 288 2556 703 3070 
Q 1119 3584 1766 3584 
Q 2128 3584 2408 3439 
Q 2688 3294 2919 2988 
z
M 2181 722 
Q 2541 722 2730 984 
Q 2919 1247 2919 1747 
Q 2919 2247 2730 2509 
Q 2541 2772 2181 2772 
Q 1825 2772 1636 2509 
Q 1447 2247 1447 1747 
Q 1447 1247 1636 984 
Q 1825 722 2181 722 
z
" id="DejaVuSans-Bold-64" transform="scale(0.015625)"/>
      <path d="M 588 4666 
L 2119 4666 
L 3181 2169 
L 4250 4666 
L 5778 4666 
L 5778 0 
L 4641 0 
L 4641 3413 
L 3566 897 
L 2803 897 
L 1728 3413 
L 1728 0 
L 588 0 
L 588 4666 
z
" id="DejaVuSans-Bold-4d" transform="scale(0.015625)"/>
      <path d="M 2944 2338 
Q 2944 3213 2780 3570 
Q 2616 3928 2228 3928 
Q 1841 3928 1675 3570 
Q 1509 3213 1509 2338 
Q 1509 1453 1675 1090 
Q 1841 728 2228 728 
Q 2613 728 2778 1090 
Q 2944 1453 2944 2338 
z
M 4147 2328 
Q 4147 1169 3647 539 
Q 3147 -91 2228 -91 
Q 1306 -91 806 539 
Q 306 1169 306 2328 
Q 306 3491 806 4120 
Q 1306 4750 2228 4750 
Q 3147 4750 3647 4120 
Q 4147 3491 4147 2328 
z
" id="DejaVuSans-Bold-30" transform="scale(0.015625)"/>
      <path d="M 4288 256 
Q 3956 84 3597 -3 
Q 3238 -91 2847 -91 
Q 1681 -91 1000 561 
Q 319 1213 319 2328 
Q 319 3447 1000 4098 
Q 1681 4750 2847 4750 
Q 3238 4750 3597 4662 
Q 3956 4575 4288 4403 
L 4288 3438 
Q 3953 3666 3628 3772 
Q 3303 3878 2944 3878 
Q 2300 3878 1931 3465 
Q 1563 3053 1563 2328 
Q 1563 1606 1931 1193 
Q 2300 781 2944 781 
Q 3303 781 3628 887 
Q 3953 994 4288 1222 
L 4288 256 
z
" id="DejaVuSans-Bold-43" transform="scale(0.015625)"/>
      <path d="M 3834 4519 
L 3834 3531 
Q 3450 3703 3084 3790 
Q 2719 3878 2394 3878 
Q 1963 3878 1756 3759 
Q 1550 3641 1550 3391 
Q 1550 3203 1689 3098 
Q 1828 2994 2194 2919 
L 2706 2816 
Q 3484 2659 3812 2340 
Q 4141 2022 4141 1434 
Q 4141 663 3683 286 
Q 3225 -91 2284 -91 
Q 1841 -91 1394 -6 
Q 947 78 500 244 
L 500 1259 
Q 947 1022 1364 901 
Q 1781 781 2169 781 
Q 2563 781 2772 912 
Q 2981 1044 2981 1288 
Q 2981 1506 2839 1625 
Q 2697 1744 2272 1838 
L 1806 1941 
Q 1106 2091 782 2419 
Q 459 2747 459 3303 
Q 459 4000 909 4375 
Q 1359 4750 2203 4750 
Q 2588 4750 2994 4692 
Q 3400 4634 3834 4519 
z
" id="DejaVuSans-Bold-53" transform="scale(0.015625)"/>
      <path d="M 588 4666 
L 3834 4666 
L 3834 3756 
L 1791 3756 
L 1791 2888 
L 3713 2888 
L 3713 1978 
L 1791 1978 
L 1791 909 
L 3903 909 
L 3903 0 
L 588 0 
L 588 4666 
z
" id="DejaVuSans-Bold-45" transform="scale(0.015625)"/>
      <path d="M 191 4666 
L 1344 4666 
L 2150 1275 
L 2950 4666 
L 4109 4666 
L 4909 1275 
L 5716 4666 
L 6859 4666 
L 5759 0 
L 4372 0 
L 3525 3547 
L 2688 0 
L 1300 0 
L 191 4666 
z
" id="DejaVuSans-Bold-57" transform="scale(0.015625)"/>
     </defs>
     <use xlink:href="#DejaVuSans-Bold-4f"/>
     <use x="85.009766" xlink:href="#DejaVuSans-Bold-6e"/>
     <use x="156.201172" xlink:href="#DejaVuSans-Bold-6c"/>
     <use x="190.478516" xlink:href="#DejaVuSans-Bold-69"/>
     <use x="224.755859" xlink:href="#DejaVuSans-Bold-6e"/>
     <use x="295.947266" xlink:href="#DejaVuSans-Bold-65"/>
     <use x="363.769531" xlink:href="#DejaVuSans-Bold-20"/>
     <use x="398.583984" xlink:href="#DejaVuSans-Bold-62"/>
     <use x="470.166016" xlink:href="#DejaVuSans-Bold-75"/>
     <use x="541.357422" xlink:href="#DejaVuSans-Bold-6c"/>
     <use x="575.634766" xlink:href="#DejaVuSans-Bold-6c"/>
     <use x="609.912109" xlink:href="#DejaVuSans-Bold-79"/>
     <use x="675.097656" xlink:href="#DejaVuSans-Bold-69"/>
     <use x="709.375" xlink:href="#DejaVuSans-Bold-6e"/>
     <use x="780.566406" xlink:href="#DejaVuSans-Bold-67"/>
     <use x="852.148438" xlink:href="#DejaVuSans-Bold-20"/>
     <use x="886.962891" xlink:href="#DejaVuSans-Bold-62"/>
     <use x="958.544922" xlink:href="#DejaVuSans-Bold-65"/>
     <use x="1026.367188" xlink:href="#DejaVuSans-Bold-68"/>
     <use x="1097.558594" xlink:href="#DejaVuSans-Bold-61"/>
     <use x="1165.039062" xlink:href="#DejaVuSans-Bold-76"/>
     <use x="1230.224609" xlink:href="#DejaVuSans-Bold-69"/>
     <use x="1264.501953" xlink:href="#DejaVuSans-Bold-6f"/>
     <use x="1333.203125" xlink:href="#DejaVuSans-Bold-75"/>
     <use x="1404.394531" xlink:href="#DejaVuSans-Bold-72"/>
     <use x="1453.710938" xlink:href="#DejaVuSans-Bold-73"/>
     <use x="1513.232422" xlink:href="#DejaVuSans-Bold-20"/>
     <use x="1548.046875" xlink:href="#DejaVuSans-Bold-69"/>
     <use x="1582.324219" xlink:href="#DejaVuSans-Bold-6e"/>
     <use x="1653.515625" xlink:href="#DejaVuSans-Bold-20"/>
     <use x="1688.330078" xlink:href="#DejaVuSans-Bold-74"/>
     <use x="1736.132812" xlink:href="#DejaVuSans-Bold-68"/>
     <use x="1807.324219" xlink:href="#DejaVuSans-Bold-65"/>
     <use x="1875.146484" xlink:href="#DejaVuSans-Bold-20"/>
     <use x="1909.960938" xlink:href="#DejaVuSans-Bold-70"/>
     <use x="1981.542969" xlink:href="#DejaVuSans-Bold-72"/>
     <use x="2030.859375" xlink:href="#DejaVuSans-Bold-65"/>
     <use x="2098.681641" xlink:href="#DejaVuSans-Bold-76"/>
     <use x="2163.867188" xlink:href="#DejaVuSans-Bold-69"/>
     <use x="2198.144531" xlink:href="#DejaVuSans-Bold-6f"/>
     <use x="2266.845703" xlink:href="#DejaVuSans-Bold-75"/>
     <use x="2338.037109" xlink:href="#DejaVuSans-Bold-73"/>
     <use x="2397.558594" xlink:href="#DejaVuSans-Bold-20"/>
     <use x="2432.373047" xlink:href="#DejaVuSans-Bold-31"/>
     <use x="2501.953125" xlink:href="#DejaVuSans-Bold-32"/>
     <use x="2571.533203" xlink:href="#DejaVuSans-Bold-20"/>
     <use x="2606.347656" xlink:href="#DejaVuSans-Bold-6d"/>
     <use x="2710.546875" xlink:href="#DejaVuSans-Bold-6f"/>
     <use x="2779.248047" xlink:href="#DejaVuSans-Bold-6e"/>
     <use x="2850.439453" xlink:href="#DejaVuSans-Bold-74"/>
     <use x="2898.242188" xlink:href="#DejaVuSans-Bold-68"/>
     <use x="2969.433594" xlink:href="#DejaVuSans-Bold-73"/>
     <use x="3028.955078" xlink:href="#DejaVuSans-Bold-2c"/>
     <use x="3066.943359" xlink:href="#DejaVuSans-Bold-20"/>
     <use x="3101.757812" xlink:href="#DejaVuSans-Bold-62"/>
     <use x="3173.339844" xlink:href="#DejaVuSans-Bold-79"/>
     <use x="3238.525391" xlink:href="#DejaVuSans-Bold-20"/>
     <use x="3273.339844" xlink:href="#DejaVuSans-Bold-74"/>
     <use x="3321.142578" xlink:href="#DejaVuSans-Bold-79"/>
     <use x="3386.328125" xlink:href="#DejaVuSans-Bold-70"/>
     <use x="3457.910156" xlink:href="#DejaVuSans-Bold-65"/>
     <use x="3525.732422" xlink:href="#DejaVuSans-Bold-20"/>
     <use x="3560.546875" xlink:href="#DejaVuSans-Bold-6f"/>
     <use x="3629.248047" xlink:href="#DejaVuSans-Bold-66"/>
     <use x="3672.753906" xlink:href="#DejaVuSans-Bold-20"/>
     <use x="3707.568359" xlink:href="#DejaVuSans-Bold-62"/>
     <use x="3779.150391" xlink:href="#DejaVuSans-Bold-65"/>
     <use x="3846.972656" xlink:href="#DejaVuSans-Bold-68"/>
     <use x="3918.164062" xlink:href="#DejaVuSans-Bold-61"/>
     <use x="3985.644531" xlink:href="#DejaVuSans-Bold-76"/>
     <use x="4050.830078" xlink:href="#DejaVuSans-Bold-69"/>
     <use x="4085.107422" xlink:href="#DejaVuSans-Bold-6f"/>
     <use x="4153.808594" xlink:href="#DejaVuSans-Bold-75"/>
     <use x="4225" xlink:href="#DejaVuSans-Bold-72"/>
     <use x="4259.566406" xlink:href="#DejaVuSans-Bold-2c"/>
     <use x="4297.554688" xlink:href="#DejaVuSans-Bold-20"/>
     <use x="4332.369141" xlink:href="#DejaVuSans-Bold-79"/>
     <use x="4397.554688" xlink:href="#DejaVuSans-Bold-65"/>
     <use x="4465.376953" xlink:href="#DejaVuSans-Bold-61"/>
     <use x="4532.857422" xlink:href="#DejaVuSans-Bold-72"/>
     <use x="4582.173828" xlink:href="#DejaVuSans-Bold-20"/>
     <use x="4616.988281" xlink:href="#DejaVuSans-Bold-65"/>
     <use x="4684.810547" xlink:href="#DejaVuSans-Bold-6e"/>
     <use x="4756.001953" xlink:href="#DejaVuSans-Bold-64"/>
     <use x="4827.583984" xlink:href="#DejaVuSans-Bold-69"/>
     <use x="4861.861328" xlink:href="#DejaVuSans-Bold-6e"/>
     <use x="4933.052734" xlink:href="#DejaVuSans-Bold-67"/>
     <use x="5004.634766" xlink:href="#DejaVuSans-Bold-20"/>
     <use x="5039.449219" xlink:href="#DejaVuSans-Bold-4d"/>
     <use x="5138.960938" xlink:href="#DejaVuSans-Bold-61"/>
     <use x="5206.441406" xlink:href="#DejaVuSans-Bold-72"/>
     <use x="5255.757812" xlink:href="#DejaVuSans-Bold-63"/>
     <use x="5315.035156" xlink:href="#DejaVuSans-Bold-68"/>
     <use x="5386.226562" xlink:href="#DejaVuSans-Bold-20"/>
     <use x="5421.041016" xlink:href="#DejaVuSans-Bold-32"/>
     <use x="5490.621094" xlink:href="#DejaVuSans-Bold-30"/>
     <use x="5560.201172" xlink:href="#DejaVuSans-Bold-32"/>
     <use x="5629.78125" xlink:href="#DejaVuSans-Bold-30"/>
     <use x="5699.361328" xlink:href="#DejaVuSans-Bold-2c"/>
     <use x="5737.349609" xlink:href="#DejaVuSans-Bold-20"/>
     <use x="5772.164062" xlink:href="#DejaVuSans-Bold-43"/>
     <use x="5847.427734" xlink:href="#DejaVuSans-Bold-53"/>
     <use x="5919.449219" xlink:href="#DejaVuSans-Bold-45"/>
     <use x="5987.759766" xlink:href="#DejaVuSans-Bold-57"/>
    </g>
   </g>
   <g id="legend_1">
    <g id="patch_42">
     <path d="M 133 133.230625 
L 575.58125 133.230625 
Q 577.58125 133.230625 577.58125 131.230625 
L 577.58125 58.84 
Q 577.58125 56.84 575.58125 56.84 
L 133 56.84 
Q 131 56.84 131 58.84 
L 131 131.230625 
Q 131 133.230625 133 133.230625 
z
" style="fill:#ffffff;opacity:0.8;stroke:#cccccc;stroke-linejoin:miter;"/>
    </g>
    <g id="patch_43">
     <path d="M 135 68.438437 
L 155 68.438437 
L 155 61.438437 
L 135 61.438437 
z
" style="fill:#1f77b4;"/>
    </g>
    <g id="text_19">
     <!-- Nasty messages about you were sent to you -->
     <g transform="translate(163 68.438437)scale(0.1 -0.1)">
      <defs>
       <path d="M 628 4666 
L 1478 4666 
L 3547 763 
L 3547 4666 
L 4159 4666 
L 4159 0 
L 3309 0 
L 1241 3903 
L 1241 0 
L 628 0 
L 628 4666 
z
" id="DejaVuSans-4e" transform="scale(0.015625)"/>
       <path d="M 2906 1791 
Q 2906 2416 2648 2759 
Q 2391 3103 1925 3103 
Q 1463 3103 1205 2759 
Q 947 2416 947 1791 
Q 947 1169 1205 825 
Q 1463 481 1925 481 
Q 2391 481 2648 825 
Q 2906 1169 2906 1791 
z
M 3481 434 
Q 3481 -459 3084 -895 
Q 2688 -1331 1869 -1331 
Q 1566 -1331 1297 -1286 
Q 1028 -1241 775 -1147 
L 775 -588 
Q 1028 -725 1275 -790 
Q 1522 -856 1778 -856 
Q 2344 -856 2625 -561 
Q 2906 -266 2906 331 
L 2906 616 
Q 2728 306 2450 153 
Q 2172 0 1784 0 
Q 1141 0 747 490 
Q 353 981 353 1791 
Q 353 2603 747 3093 
Q 1141 3584 1784 3584 
Q 2172 3584 2450 3431 
Q 2728 3278 2906 2969 
L 2906 3500 
L 3481 3500 
L 3481 434 
z
" id="DejaVuSans-67" transform="scale(0.015625)"/>
       <path d="M 3116 1747 
Q 3116 2381 2855 2742 
Q 2594 3103 2138 3103 
Q 1681 3103 1420 2742 
Q 1159 2381 1159 1747 
Q 1159 1113 1420 752 
Q 1681 391 2138 391 
Q 2594 391 2855 752 
Q 3116 1113 3116 1747 
z
M 1159 2969 
Q 1341 3281 1617 3432 
Q 1894 3584 2278 3584 
Q 2916 3584 3314 3078 
Q 3713 2572 3713 1747 
Q 3713 922 3314 415 
Q 2916 -91 2278 -91 
Q 1894 -91 1617 61 
Q 1341 213 1159 525 
L 1159 0 
L 581 0 
L 581 4863 
L 1159 4863 
L 1159 2969 
z
" id="DejaVuSans-62" transform="scale(0.015625)"/>
      </defs>
      <use xlink:href="#DejaVuSans-4e"/>
      <use x="74.804688" xlink:href="#DejaVuSans-61"/>
      <use x="136.083984" xlink:href="#DejaVuSans-73"/>
      <use x="188.183594" xlink:href="#DejaVuSans-74"/>
      <use x="227.392578" xlink:href="#DejaVuSans-79"/>
      <use x="286.572266" xlink:href="#DejaVuSans-20"/>
      <use x="318.359375" xlink:href="#DejaVuSans-6d"/>
      <use x="415.771484" xlink:href="#DejaVuSans-65"/>
      <use x="477.294922" xlink:href="#DejaVuSans-73"/>
      <use x="529.394531" xlink:href="#DejaVuSans-73"/>
      <use x="581.494141" xlink:href="#DejaVuSans-61"/>
      <use x="642.773438" xlink:href="#DejaVuSans-67"/>
      <use x="706.25" xlink:href="#DejaVuSans-65"/>
      <use x="767.773438" xlink:href="#DejaVuSans-73"/>
      <use x="819.873047" xlink:href="#DejaVuSans-20"/>
      <use x="851.660156" xlink:href="#DejaVuSans-61"/>
      <use x="912.939453" xlink:href="#DejaVuSans-62"/>
      <use x="976.416016" xlink:href="#DejaVuSans-6f"/>
      <use x="1037.597656" xlink:href="#DejaVuSans-75"/>
      <use x="1100.976562" xlink:href="#DejaVuSans-74"/>
      <use x="1140.185547" xlink:href="#DejaVuSans-20"/>
      <use x="1171.972656" xlink:href="#DejaVuSans-79"/>
      <use x="1231.152344" xlink:href="#DejaVuSans-6f"/>
      <use x="1292.333984" xlink:href="#DejaVuSans-75"/>
      <use x="1355.712891" xlink:href="#DejaVuSans-20"/>
      <use x="1387.5" xlink:href="#DejaVuSans-77"/>
      <use x="1469.287109" xlink:href="#DejaVuSans-65"/>
      <use x="1530.810547" xlink:href="#DejaVuSans-72"/>
      <use x="1569.673828" xlink:href="#DejaVuSans-65"/>
      <use x="1631.197266" xlink:href="#DejaVuSans-20"/>
      <use x="1662.984375" xlink:href="#DejaVuSans-73"/>
      <use x="1715.083984" xlink:href="#DejaVuSans-65"/>
      <use x="1776.607422" xlink:href="#DejaVuSans-6e"/>
      <use x="1839.986328" xlink:href="#DejaVuSans-74"/>
      <use x="1879.195312" xlink:href="#DejaVuSans-20"/>
      <use x="1910.982422" xlink:href="#DejaVuSans-74"/>
      <use x="1950.191406" xlink:href="#DejaVuSans-6f"/>
      <use x="2011.373047" xlink:href="#DejaVuSans-20"/>
      <use x="2043.160156" xlink:href="#DejaVuSans-79"/>
      <use x="2102.339844" xlink:href="#DejaVuSans-6f"/>
      <use x="2163.521484" xlink:href="#DejaVuSans-75"/>
     </g>
    </g>
    <g id="patch_44">
     <path d="M 135 83.116562 
L 155 83.116562 
L 155 76.116562 
L 135 76.116562 
z
" style="fill:#ff7f0e;"/>
    </g>
    <g id="text_20">
     <!-- Nasty messages about you were passed around or posted where others could see -->
     <g transform="translate(163 83.116562)scale(0.1 -0.1)">
      <defs>
       <path d="M 1159 525 
L 1159 -1331 
L 581 -1331 
L 581 3500 
L 1159 3500 
L 1159 2969 
Q 1341 3281 1617 3432 
Q 1894 3584 2278 3584 
Q 2916 3584 3314 3078 
Q 3713 2572 3713 1747 
Q 3713 922 3314 415 
Q 2916 -91 2278 -91 
Q 1894 -91 1617 61 
Q 1341 213 1159 525 
z
M 3116 1747 
Q 3116 2381 2855 2742 
Q 2594 3103 2138 3103 
Q 1681 3103 1420 2742 
Q 1159 2381 1159 1747 
Q 1159 1113 1420 752 
Q 1681 391 2138 391 
Q 2594 391 2855 752 
Q 3116 1113 3116 1747 
z
" id="DejaVuSans-70" transform="scale(0.015625)"/>
      </defs>
      <use xlink:href="#DejaVuSans-4e"/>
      <use x="74.804688" xlink:href="#DejaVuSans-61"/>
      <use x="136.083984" xlink:href="#DejaVuSans-73"/>
      <use x="188.183594" xlink:href="#DejaVuSans-74"/>
      <use x="227.392578" xlink:href="#DejaVuSans-79"/>
      <use x="286.572266" xlink:href="#DejaVuSans-20"/>
      <use x="318.359375" xlink:href="#DejaVuSans-6d"/>
      <use x="415.771484" xlink:href="#DejaVuSans-65"/>
      <use x="477.294922" xlink:href="#DejaVuSans-73"/>
      <use x="529.394531" xlink:href="#DejaVuSans-73"/>
      <use x="581.494141" xlink:href="#DejaVuSans-61"/>
      <use x="642.773438" xlink:href="#DejaVuSans-67"/>
      <use x="706.25" xlink:href="#DejaVuSans-65"/>
      <use x="767.773438" xlink:href="#DejaVuSans-73"/>
      <use x="819.873047" xlink:href="#DejaVuSans-20"/>
      <use x="851.660156" xlink:href="#DejaVuSans-61"/>
      <use x="912.939453" xlink:href="#DejaVuSans-62"/>
      <use x="976.416016" xlink:href="#DejaVuSans-6f"/>
      <use x="1037.597656" xlink:href="#DejaVuSans-75"/>
      <use x="1100.976562" xlink:href="#DejaVuSans-74"/>
      <use x="1140.185547" xlink:href="#DejaVuSans-20"/>
      <use x="1171.972656" xlink:href="#DejaVuSans-79"/>
      <use x="1231.152344" xlink:href="#DejaVuSans-6f"/>
      <use x="1292.333984" xlink:href="#DejaVuSans-75"/>
      <use x="1355.712891" xlink:href="#DejaVuSans-20"/>
      <use x="1387.5" xlink:href="#DejaVuSans-77"/>
      <use x="1469.287109" xlink:href="#DejaVuSans-65"/>
      <use x="1530.810547" xlink:href="#DejaVuSans-72"/>
      <use x="1569.673828" xlink:href="#DejaVuSans-65"/>
      <use x="1631.197266" xlink:href="#DejaVuSans-20"/>
      <use x="1662.984375" xlink:href="#DejaVuSans-70"/>
      <use x="1726.460938" xlink:href="#DejaVuSans-61"/>
      <use x="1787.740234" xlink:href="#DejaVuSans-73"/>
      <use x="1839.839844" xlink:href="#DejaVuSans-73"/>
      <use x="1891.939453" xlink:href="#DejaVuSans-65"/>
      <use x="1953.462891" xlink:href="#DejaVuSans-64"/>
      <use x="2016.939453" xlink:href="#DejaVuSans-20"/>
      <use x="2048.726562" xlink:href="#DejaVuSans-61"/>
      <use x="2110.005859" xlink:href="#DejaVuSans-72"/>
      <use x="2148.869141" xlink:href="#DejaVuSans-6f"/>
      <use x="2210.050781" xlink:href="#DejaVuSans-75"/>
      <use x="2273.429688" xlink:href="#DejaVuSans-6e"/>
      <use x="2336.808594" xlink:href="#DejaVuSans-64"/>
      <use x="2400.285156" xlink:href="#DejaVuSans-20"/>
      <use x="2432.072266" xlink:href="#DejaVuSans-6f"/>
      <use x="2493.253906" xlink:href="#DejaVuSans-72"/>
      <use x="2534.367188" xlink:href="#DejaVuSans-20"/>
      <use x="2566.154297" xlink:href="#DejaVuSans-70"/>
      <use x="2629.630859" xlink:href="#DejaVuSans-6f"/>
      <use x="2690.8125" xlink:href="#DejaVuSans-73"/>
      <use x="2742.912109" xlink:href="#DejaVuSans-74"/>
      <use x="2782.121094" xlink:href="#DejaVuSans-65"/>
      <use x="2843.644531" xlink:href="#DejaVuSans-64"/>
      <use x="2907.121094" xlink:href="#DejaVuSans-20"/>
      <use x="2938.908203" xlink:href="#DejaVuSans-77"/>
      <use x="3020.695312" xlink:href="#DejaVuSans-68"/>
      <use x="3084.074219" xlink:href="#DejaVuSans-65"/>
      <use x="3145.597656" xlink:href="#DejaVuSans-72"/>
      <use x="3184.460938" xlink:href="#DejaVuSans-65"/>
      <use x="3245.984375" xlink:href="#DejaVuSans-20"/>
      <use x="3277.771484" xlink:href="#DejaVuSans-6f"/>
      <use x="3338.953125" xlink:href="#DejaVuSans-74"/>
      <use x="3378.162109" xlink:href="#DejaVuSans-68"/>
      <use x="3441.541016" xlink:href="#DejaVuSans-65"/>
      <use x="3503.064453" xlink:href="#DejaVuSans-72"/>
      <use x="3544.177734" xlink:href="#DejaVuSans-73"/>
      <use x="3596.277344" xlink:href="#DejaVuSans-20"/>
      <use x="3628.064453" xlink:href="#DejaVuSans-63"/>
      <use x="3683.044922" xlink:href="#DejaVuSans-6f"/>
      <use x="3744.226562" xlink:href="#DejaVuSans-75"/>
      <use x="3807.605469" xlink:href="#DejaVuSans-6c"/>
      <use x="3835.388672" xlink:href="#DejaVuSans-64"/>
      <use x="3898.865234" xlink:href="#DejaVuSans-20"/>
      <use x="3930.652344" xlink:href="#DejaVuSans-73"/>
      <use x="3982.751953" xlink:href="#DejaVuSans-65"/>
      <use x="4044.275391" xlink:href="#DejaVuSans-65"/>
     </g>
    </g>
    <g id="patch_45">
     <path d="M 135 97.794687 
L 155 97.794687 
L 155 90.794687 
L 135 90.794687 
z
" style="fill:#2ca02c;"/>
    </g>
    <g id="text_21">
     <!-- You were left out or excluded from a group or activity on purpose -->
     <g transform="translate(163 97.794687)scale(0.1 -0.1)">
      <defs>
       <path d="M -13 4666 
L 666 4666 
L 1959 2747 
L 3244 4666 
L 3922 4666 
L 2272 2222 
L 2272 0 
L 1638 0 
L 1638 2222 
L -13 4666 
z
" id="DejaVuSans-59" transform="scale(0.015625)"/>
       <path d="M 3513 3500 
L 2247 1797 
L 3578 0 
L 2900 0 
L 1881 1375 
L 863 0 
L 184 0 
L 1544 1831 
L 300 3500 
L 978 3500 
L 1906 2253 
L 2834 3500 
L 3513 3500 
z
" id="DejaVuSans-78" transform="scale(0.015625)"/>
      </defs>
      <use xlink:href="#DejaVuSans-59"/>
      <use x="47.833984" xlink:href="#DejaVuSans-6f"/>
      <use x="109.015625" xlink:href="#DejaVuSans-75"/>
      <use x="172.394531" xlink:href="#DejaVuSans-20"/>
      <use x="204.181641" xlink:href="#DejaVuSans-77"/>
      <use x="285.96875" xlink:href="#DejaVuSans-65"/>
      <use x="347.492188" xlink:href="#DejaVuSans-72"/>
      <use x="386.355469" xlink:href="#DejaVuSans-65"/>
      <use x="447.878906" xlink:href="#DejaVuSans-20"/>
      <use x="479.666016" xlink:href="#DejaVuSans-6c"/>
      <use x="507.449219" xlink:href="#DejaVuSans-65"/>
      <use x="568.972656" xlink:href="#DejaVuSans-66"/>
      <use x="602.427734" xlink:href="#DejaVuSans-74"/>
      <use x="641.636719" xlink:href="#DejaVuSans-20"/>
      <use x="673.423828" xlink:href="#DejaVuSans-6f"/>
      <use x="734.605469" xlink:href="#DejaVuSans-75"/>
      <use x="797.984375" xlink:href="#DejaVuSans-74"/>
      <use x="837.193359" xlink:href="#DejaVuSans-20"/>
      <use x="868.980469" xlink:href="#DejaVuSans-6f"/>
      <use x="930.162109" xlink:href="#DejaVuSans-72"/>
      <use x="971.275391" xlink:href="#DejaVuSans-20"/>
      <use x="1003.0625" xlink:href="#DejaVuSans-65"/>
      <use x="1062.835938" xlink:href="#DejaVuSans-78"/>
      <use x="1120.265625" xlink:href="#DejaVuSans-63"/>
      <use x="1175.246094" xlink:href="#DejaVuSans-6c"/>
      <use x="1203.029297" xlink:href="#DejaVuSans-75"/>
      <use x="1266.408203" xlink:href="#DejaVuSans-64"/>
      <use x="1329.884766" xlink:href="#DejaVuSans-65"/>
      <use x="1391.408203" xlink:href="#DejaVuSans-64"/>
      <use x="1454.884766" xlink:href="#DejaVuSans-20"/>
      <use x="1486.671875" xlink:href="#DejaVuSans-66"/>
      <use x="1521.876953" xlink:href="#DejaVuSans-72"/>
      <use x="1560.740234" xlink:href="#DejaVuSans-6f"/>
      <use x="1621.921875" xlink:href="#DejaVuSans-6d"/>
      <use x="1719.333984" xlink:href="#DejaVuSans-20"/>
      <use x="1751.121094" xlink:href="#DejaVuSans-61"/>
      <use x="1812.400391" xlink:href="#DejaVuSans-20"/>
      <use x="1844.1875" xlink:href="#DejaVuSans-67"/>
      <use x="1907.664062" xlink:href="#DejaVuSans-72"/>
      <use x="1946.527344" xlink:href="#DejaVuSans-6f"/>
      <use x="2007.708984" xlink:href="#DejaVuSans-75"/>
      <use x="2071.087891" xlink:href="#DejaVuSans-70"/>
      <use x="2134.564453" xlink:href="#DejaVuSans-20"/>
      <use x="2166.351562" xlink:href="#DejaVuSans-6f"/>
      <use x="2227.533203" xlink:href="#DejaVuSans-72"/>
      <use x="2268.646484" xlink:href="#DejaVuSans-20"/>
      <use x="2300.433594" xlink:href="#DejaVuSans-61"/>
      <use x="2361.712891" xlink:href="#DejaVuSans-63"/>
      <use x="2416.693359" xlink:href="#DejaVuSans-74"/>
      <use x="2455.902344" xlink:href="#DejaVuSans-69"/>
      <use x="2483.685547" xlink:href="#DejaVuSans-76"/>
      <use x="2542.865234" xlink:href="#DejaVuSans-69"/>
      <use x="2570.648438" xlink:href="#DejaVuSans-74"/>
      <use x="2609.857422" xlink:href="#DejaVuSans-79"/>
      <use x="2669.037109" xlink:href="#DejaVuSans-20"/>
      <use x="2700.824219" xlink:href="#DejaVuSans-6f"/>
      <use x="2762.005859" xlink:href="#DejaVuSans-6e"/>
      <use x="2825.384766" xlink:href="#DejaVuSans-20"/>
      <use x="2857.171875" xlink:href="#DejaVuSans-70"/>
      <use x="2920.648438" xlink:href="#DejaVuSans-75"/>
      <use x="2984.027344" xlink:href="#DejaVuSans-72"/>
      <use x="3025.140625" xlink:href="#DejaVuSans-70"/>
      <use x="3088.617188" xlink:href="#DejaVuSans-6f"/>
      <use x="3149.798828" xlink:href="#DejaVuSans-73"/>
      <use x="3201.898438" xlink:href="#DejaVuSans-65"/>
     </g>
    </g>
    <g id="patch_46">
     <path d="M 135 112.472812 
L 155 112.472812 
L 155 105.472812 
L 135 105.472812 
z
" style="fill:#d62728;"/>
    </g>
    <g id="text_22">
     <!-- Rumours were spread about you -->
     <g transform="translate(163 112.472812)scale(0.1 -0.1)">
      <defs>
       <path d="M 2841 2188 
Q 3044 2119 3236 1894 
Q 3428 1669 3622 1275 
L 4263 0 
L 3584 0 
L 2988 1197 
Q 2756 1666 2539 1819 
Q 2322 1972 1947 1972 
L 1259 1972 
L 1259 0 
L 628 0 
L 628 4666 
L 2053 4666 
Q 2853 4666 3247 4331 
Q 3641 3997 3641 3322 
Q 3641 2881 3436 2590 
Q 3231 2300 2841 2188 
z
M 1259 4147 
L 1259 2491 
L 2053 2491 
Q 2509 2491 2742 2702 
Q 2975 2913 2975 3322 
Q 2975 3731 2742 3939 
Q 2509 4147 2053 4147 
L 1259 4147 
z
" id="DejaVuSans-52" transform="scale(0.015625)"/>
      </defs>
      <use xlink:href="#DejaVuSans-52"/>
      <use x="64.982422" xlink:href="#DejaVuSans-75"/>
      <use x="128.361328" xlink:href="#DejaVuSans-6d"/>
      <use x="225.773438" xlink:href="#DejaVuSans-6f"/>
      <use x="286.955078" xlink:href="#DejaVuSans-75"/>
      <use x="350.333984" xlink:href="#DejaVuSans-72"/>
      <use x="391.447266" xlink:href="#DejaVuSans-73"/>
      <use x="443.546875" xlink:href="#DejaVuSans-20"/>
      <use x="475.333984" xlink:href="#DejaVuSans-77"/>
      <use x="557.121094" xlink:href="#DejaVuSans-65"/>
      <use x="618.644531" xlink:href="#DejaVuSans-72"/>
      <use x="657.507812" xlink:href="#DejaVuSans-65"/>
      <use x="719.03125" xlink:href="#DejaVuSans-20"/>
      <use x="750.818359" xlink:href="#DejaVuSans-73"/>
      <use x="802.917969" xlink:href="#DejaVuSans-70"/>
      <use x="866.394531" xlink:href="#DejaVuSans-72"/>
      <use x="905.257812" xlink:href="#DejaVuSans-65"/>
      <use x="966.78125" xlink:href="#DejaVuSans-61"/>
      <use x="1028.060547" xlink:href="#DejaVuSans-64"/>
      <use x="1091.537109" xlink:href="#DejaVuSans-20"/>
      <use x="1123.324219" xlink:href="#DejaVuSans-61"/>
      <use x="1184.603516" xlink:href="#DejaVuSans-62"/>
      <use x="1248.080078" xlink:href="#DejaVuSans-6f"/>
      <use x="1309.261719" xlink:href="#DejaVuSans-75"/>
      <use x="1372.640625" xlink:href="#DejaVuSans-74"/>
      <use x="1411.849609" xlink:href="#DejaVuSans-20"/>
      <use x="1443.636719" xlink:href="#DejaVuSans-79"/>
      <use x="1502.816406" xlink:href="#DejaVuSans-6f"/>
      <use x="1563.998047" xlink:href="#DejaVuSans-75"/>
     </g>
    </g>
    <g id="patch_47">
     <path d="M 135 127.150937 
L 155 127.150937 
L 155 120.150937 
L 135 120.150937 
z
" style="fill:#9467bd;"/>
    </g>
    <g id="text_23">
     <!-- Someone called you names and swore at you or insulted you -->
     <g transform="translate(163 127.150937)scale(0.1 -0.1)">
      <defs>
       <path d="M 3425 4513 
L 3425 3897 
Q 3066 4069 2747 4153 
Q 2428 4238 2131 4238 
Q 1616 4238 1336 4038 
Q 1056 3838 1056 3469 
Q 1056 3159 1242 3001 
Q 1428 2844 1947 2747 
L 2328 2669 
Q 3034 2534 3370 2195 
Q 3706 1856 3706 1288 
Q 3706 609 3251 259 
Q 2797 -91 1919 -91 
Q 1588 -91 1214 -16 
Q 841 59 441 206 
L 441 856 
Q 825 641 1194 531 
Q 1563 422 1919 422 
Q 2459 422 2753 634 
Q 3047 847 3047 1241 
Q 3047 1584 2836 1778 
Q 2625 1972 2144 2069 
L 1759 2144 
Q 1053 2284 737 2584 
Q 422 2884 422 3419 
Q 422 4038 858 4394 
Q 1294 4750 2059 4750 
Q 2388 4750 2728 4690 
Q 3069 4631 3425 4513 
z
" id="DejaVuSans-53" transform="scale(0.015625)"/>
      </defs>
      <use xlink:href="#DejaVuSans-53"/>
      <use x="63.476562" xlink:href="#DejaVuSans-6f"/>
      <use x="124.658203" xlink:href="#DejaVuSans-6d"/>
      <use x="222.070312" xlink:href="#DejaVuSans-65"/>
      <use x="283.59375" xlink:href="#DejaVuSans-6f"/>
      <use x="344.775391" xlink:href="#DejaVuSans-6e"/>
      <use x="408.154297" xlink:href="#DejaVuSans-65"/>
      <use x="469.677734" xlink:href="#DejaVuSans-20"/>
      <use x="501.464844" xlink:href="#DejaVuSans-63"/>
      <use x="556.445312" xlink:href="#DejaVuSans-61"/>
      <use x="617.724609" xlink:href="#DejaVuSans-6c"/>
      <use x="645.507812" xlink:href="#DejaVuSans-6c"/>
      <use x="673.291016" xlink:href="#DejaVuSans-65"/>
      <use x="734.814453" xlink:href="#DejaVuSans-64"/>
      <use x="798.291016" xlink:href="#DejaVuSans-20"/>
      <use x="830.078125" xlink:href="#DejaVuSans-79"/>
      <use x="889.257812" xlink:href="#DejaVuSans-6f"/>
      <use x="950.439453" xlink:href="#DejaVuSans-75"/>
      <use x="1013.818359" xlink:href="#DejaVuSans-20"/>
      <use x="1045.605469" xlink:href="#DejaVuSans-6e"/>
      <use x="1108.984375" xlink:href="#DejaVuSans-61"/>
      <use x="1170.263672" xlink:href="#DejaVuSans-6d"/>
      <use x="1267.675781" xlink:href="#DejaVuSans-65"/>
      <use x="1329.199219" xlink:href="#DejaVuSans-73"/>
      <use x="1381.298828" xlink:href="#DejaVuSans-20"/>
      <use x="1413.085938" xlink:href="#DejaVuSans-61"/>
      <use x="1474.365234" xlink:href="#DejaVuSans-6e"/>
      <use x="1537.744141" xlink:href="#DejaVuSans-64"/>
      <use x="1601.220703" xlink:href="#DejaVuSans-20"/>
      <use x="1633.007812" xlink:href="#DejaVuSans-73"/>
      <use x="1685.107422" xlink:href="#DejaVuSans-77"/>
      <use x="1766.894531" xlink:href="#DejaVuSans-6f"/>
      <use x="1828.076172" xlink:href="#DejaVuSans-72"/>
      <use x="1866.939453" xlink:href="#DejaVuSans-65"/>
      <use x="1928.462891" xlink:href="#DejaVuSans-20"/>
      <use x="1960.25" xlink:href="#DejaVuSans-61"/>
      <use x="2021.529297" xlink:href="#DejaVuSans-74"/>
      <use x="2060.738281" xlink:href="#DejaVuSans-20"/>
      <use x="2092.525391" xlink:href="#DejaVuSans-79"/>
      <use x="2151.705078" xlink:href="#DejaVuSans-6f"/>
      <use x="2212.886719" xlink:href="#DejaVuSans-75"/>
      <use x="2276.265625" xlink:href="#DejaVuSans-20"/>
      <use x="2308.052734" xlink:href="#DejaVuSans-6f"/>
      <use x="2369.234375" xlink:href="#DejaVuSans-72"/>
      <use x="2410.347656" xlink:href="#DejaVuSans-20"/>
      <use x="2442.134766" xlink:href="#DejaVuSans-69"/>
      <use x="2469.917969" xlink:href="#DejaVuSans-6e"/>
      <use x="2533.296875" xlink:href="#DejaVuSans-73"/>
      <use x="2585.396484" xlink:href="#DejaVuSans-75"/>
      <use x="2648.775391" xlink:href="#DejaVuSans-6c"/>
      <use x="2676.558594" xlink:href="#DejaVuSans-74"/>
      <use x="2715.767578" xlink:href="#DejaVuSans-65"/>
      <use x="2777.291016" xlink:href="#DejaVuSans-64"/>
      <use x="2840.767578" xlink:href="#DejaVuSans-20"/>
      <use x="2872.554688" xlink:href="#DejaVuSans-79"/>
      <use x="2931.734375" xlink:href="#DejaVuSans-6f"/>
      <use x="2992.916016" xlink:href="#DejaVuSans-75"/>
     </g>
    </g>
   </g>
  </g>
 </g>
 <defs>
  <clipPath id="pfa96a3a097">
   <rect height="293.76" width="781.2" x="126" y="51.84"/>
  </clipPath>
 </defs>
</svg>
